<?xml version="1.0" encoding="UTF-8" standalone="no"?>
<!-- Created with Inkscape (http://www.inkscape.org/) -->
<svg xmlns:dc="http://purl.org/dc/elements/1.1/" xmlns:cc="http://web.resource.org/cc/" xmlns:rdf="http://www.w3.org/1999/02/22-rdf-syntax-ns#" xmlns:svg="http://www.w3.org/2000/svg" xmlns="http://www.w3.org/2000/svg" xmlns:sodipodi="http://sodipodi.sourceforge.net/DTD/sodipodi-0.dtd" xmlns:inkscape="http://www.inkscape.org/namespaces/inkscape" width="705.86975" height="812.71387" id="svg2463" sodipodi:version="0.32" inkscape:version="0.45.1" sodipodi:docbase="/home/brunurb/Desktop/Retrojoystick 002" sodipodi:docname="RetroJoystick002.svg" inkscape:output_extension="org.inkscape.output.svg.inkscape" inkscape:export-filename="/home/brunurb/Desktop/RetroJoystick002.png" inkscape:export-xdpi="71.981049" inkscape:export-ydpi="71.981049" version="1.0">
  <defs id="defs2465"/>
  <sodipodi:namedview id="base" pagecolor="#ffffff" bordercolor="#666666" borderopacity="1.0" gridtolerance="10000" guidetolerance="10" objecttolerance="10" inkscape:pageopacity="0.0" inkscape:pageshadow="2" inkscape:zoom="0.35" inkscape:cx="375" inkscape:cy="520" inkscape:document-units="px" inkscape:current-layer="layer1" inkscape:window-width="1280" inkscape:window-height="951" inkscape:window-x="0" inkscape:window-y="24"/>
  <metadata id="metadata2468">
    <rdf:RDF>
      <cc:Work rdf:about="">
        <dc:format>image/svg+xml</dc:format>
        <dc:type rdf:resource="http://purl.org/dc/dcmitype/StillImage"/>
        <cc:license rdf:resource="http://web.resource.org/cc/PublicDomain"/>
        <dc:title>Retro Joystick 002</dc:title>
        <dc:date>2007-11-14</dc:date>
        <dc:creator>
          <cc:Agent>
            <dc:title>brunurb</dc:title>
          </cc:Agent>
        </dc:creator>
        <dc:subject>
          <rdf:Bag>
            <rdf:li>joystick</rdf:li>
            <rdf:li>game</rdf:li>
            <rdf:li>retro</rdf:li>
            <rdf:li>classic</rdf:li>
            <rdf:li>arcade</rdf:li>
          </rdf:Bag>
        </dc:subject>
        <dc:description>Retro gaming joystick</dc:description>
        <dc:rights>
          <cc:Agent>
            <dc:title>This work is hereby released into the Public Domain. To view a copy of the public domain dedication, visit http://creativecommons.org/licenses/publicdomain/ or send a letter to Creative Commons, 171 Second Street, Suite 300, San Francisco, California, 94105, USA.</dc:title>
          </cc:Agent>
        </dc:rights>
        <dc:publisher>
          <cc:Agent>
            <dc:title>openclipart.org</dc:title>
          </cc:Agent>
        </dc:publisher>
        <dc:identifier>openclipart.org</dc:identifier>
      </cc:Work>
      <cc:License rdf:about="http://web.resource.org/cc/PublicDomain">
        <cc:permits rdf:resource="http://web.resource.org/cc/Reproduction"/>
        <cc:permits rdf:resource="http://web.resource.org/cc/Distribution"/>
        <cc:permits rdf:resource="http://web.resource.org/cc/DerivativeWorks"/>
      </cc:License>
    </rdf:RDF>
  </metadata>
  <g inkscape:label="Layer 1" inkscape:groupmode="layer" id="layer1" transform="translate(-22.779422,-113.5204)">
    <g style="fill:#000000" id="g2473" transform="matrix(1.487792,0,0,1.487792,-78.780096,-458.22)">
      <path d="M 81.463,644.621 L 353.463,569.75 C 369.348,564.217 384.87,567.362 400.027,579.186 L 532.335,712.929 C 542.55,721.922 545.217,737.444 540.335,759.493 L 521.463,820.621 L 246.592,927.493 C 226.821,934.608 207.402,929.274 188.335,911.493 L 90.899,756.621 L 68.335,673.75 C 67.632,659.557 72.009,649.847 81.463,644.621 z " id="path2475"/>
    </g>
    <g style="fill:#ffffff" id="g2477" transform="matrix(1.487792,0,0,1.487792,-78.780096,-458.22)">
      <path d="M 68.335,673.75 C 67.862,664.191 69.692,656.666 73.826,651.174 C 134.638,742.628 170.547,796.621 185.734,819.448 L 184.508,905.41 L 90.899,756.621 L 68.335,673.75 z " id="path2479"/>
    </g>
    <g style="fill:#ffffff" id="g2481" transform="matrix(1.487792,0,0,1.487792,-78.780096,-458.22)">
      <path d="M 163.714,679.399 C 163.714,636.299 229.062,601.36 309.676,601.36 C 390.289,601.36 455.638,636.299 455.638,679.399 C 455.638,722.498 390.289,757.437 309.676,757.437 C 229.062,757.437 163.714,722.498 163.714,679.399 z " id="path2483"/>
    </g>
    <g style="fill:#ffffff" id="g2485" transform="matrix(1.487792,0,0,1.487792,-78.780096,-458.22)">
      <path d="" id="path2487"/>
    </g>
    <g style="fill:#000000" id="g2489" transform="matrix(1.487792,0,0,1.487792,-78.780096,-458.22)">
      <path d="M 165.192,688.214 C 165.192,645.114 230.54,610.176 311.153,610.176 C 391.767,610.176 457.115,645.114 457.115,688.214 C 457.115,731.314 391.767,766.252 311.153,766.252 C 230.54,766.252 165.192,731.314 165.192,688.214 z " id="path2491"/>
    </g>
    <g style="fill:#000000" id="g2493" transform="matrix(1.487792,0,0,1.487792,-78.780096,-458.22)">
      <path d="" id="path2495"/>
    </g>
    <g style="fill:#ff0000" id="g2497" transform="matrix(1.487792,0,0,1.487792,-78.780096,-458.22)">
      <path d="M 189.77,771.186 C 189.77,757.931 206.072,747.186 226.181,747.186 C 246.29,747.186 262.592,757.931 262.592,771.186 C 262.592,784.441 246.29,795.186 226.181,795.186 C 206.072,795.186 189.77,784.441 189.77,771.186 z " id="path2499"/>
    </g>
    <g style="fill:#ff0000" id="g2501" transform="matrix(1.487792,0,0,1.487792,-78.780096,-458.22)">
      <path d="" id="path2503"/>
    </g>
    <g style="fill:#ffffff" id="g2505" transform="matrix(1.487792,0,0,1.487792,-78.780096,-458.22)">
      <path d="M 262.548,770.006 C 262.577,770.397 262.592,770.79 262.592,771.186 C 262.592,784.441 246.29,795.186 226.181,795.186 C 206.219,795.186 189.947,784.598 189.773,771.476 L 189.773,790.252 C 211.331,812.009 250.084,812.621 265.268,787.806 L 262.548,770.006 z " id="path2507"/>
    </g>
    <g style="fill:#ffffff" id="g2509" transform="matrix(1.487792,0,0,1.487792,-78.780096,-458.22)">
      <path d="M 190.16,678.66 C 190.16,643.088 245.494,614.252 313.752,614.252 C 382.012,614.252 437.345,643.088 437.345,678.66 C 437.345,714.232 382.012,743.067 313.752,743.067 C 245.494,743.067 190.16,714.232 190.16,678.66 z " id="path2511"/>
    </g>
    <g style="fill:#ffffff" id="g2513" transform="matrix(1.487792,0,0,1.487792,-78.780096,-458.22)">
      <path d="" id="path2515"/>
    </g>
    <g style="fill:#000000" id="g2517" transform="matrix(1.487792,0,0,1.487792,-78.780096,-458.22)">
      <path d="M 192.453,684.214 C 192.453,650.443 246.726,623.067 313.676,623.067 C 380.626,623.067 434.899,650.443 434.899,684.214 C 434.899,717.984 380.626,745.36 313.676,745.36 C 246.726,745.36 192.453,717.984 192.453,684.214 z " id="path2519"/>
    </g>
    <g style="fill:#000000" id="g2521" transform="matrix(1.487792,0,0,1.487792,-78.780096,-458.22)">
      <path d="" id="path2523"/>
    </g>
    <g style="fill:#ffffff" id="g2525" transform="matrix(1.487792,0,0,1.487792,-78.780096,-458.22)">
      <path d="M 199.638,691.399 C 199.638,659.795 249.781,634.176 311.638,634.176 C 373.494,634.176 423.638,659.795 423.638,691.399 C 423.638,723.002 373.494,748.621 311.638,748.621 C 249.781,748.621 199.638,723.002 199.638,691.399 z " id="path2527"/>
    </g>
    <g style="fill:#ffffff" id="g2529" transform="matrix(1.487792,0,0,1.487792,-78.780096,-458.22)">
      <path d="" id="path2531"/>
    </g>
    <g style="fill:#000000" id="g2533" transform="matrix(1.487792,0,0,1.487792,-78.780096,-458.22)">
      <path d="M 210.084,684.621 C 210.084,656.31 255.767,633.36 312.122,633.36 C 368.477,633.36 414.16,656.31 414.16,684.621 C 414.16,712.933 368.477,735.883 312.122,735.883 C 255.767,735.883 210.084,712.933 210.084,684.621 z " id="path2535"/>
    </g>
    <g style="fill:#000000" id="g2537" transform="matrix(1.487792,0,0,1.487792,-78.780096,-458.22)">
      <path d="" id="path2539"/>
    </g>
    <g style="fill:#ffffff" id="g2541" transform="matrix(1.487792,0,0,1.487792,-78.780096,-458.22)">
      <path d="M 209.268,674.252 C 209.268,646.434 254.404,623.883 310.084,623.883 C 365.763,623.883 410.899,646.434 410.899,674.252 C 410.899,702.071 365.763,724.621 310.084,724.621 C 254.404,724.621 209.268,702.071 209.268,674.252 z " id="path2543"/>
    </g>
    <g style="fill:#ffffff" id="g2545" transform="matrix(1.487792,0,0,1.487792,-78.780096,-458.22)">
      <path d="" id="path2547"/>
    </g>
    <g style="fill:#000000" id="g2549" transform="matrix(1.487792,0,0,1.487792,-78.780096,-458.22)">
      <path d="M 218.899,671.475 C 218.899,644.74 261.149,623.067 313.268,623.067 C 365.388,623.067 407.638,644.74 407.638,671.475 C 407.638,698.21 365.388,719.883 313.268,719.883 C 261.149,719.883 218.899,698.21 218.899,671.475 z " id="path2551"/>
    </g>
    <g style="fill:#000000" id="g2553" transform="matrix(1.487792,0,0,1.487792,-78.780096,-458.22)">
      <path d="" id="path2555"/>
    </g>
    <g style="fill:#ffffff" id="g2557" transform="matrix(1.487792,0,0,1.487792,-78.780096,-458.22)">
      <path d="M 226.084,659.883 C 226.084,630.713 265.117,607.067 313.268,607.067 C 361.42,607.067 400.453,630.713 400.453,659.883 C 400.453,689.052 361.42,712.698 313.268,712.698 C 265.117,712.698 226.084,689.052 226.084,659.883 z " id="path2559"/>
    </g>
    <g style="fill:#ffffff" id="g2561" transform="matrix(1.487792,0,0,1.487792,-78.780096,-458.22)">
      <path d="" id="path2563"/>
    </g>
    <g style="fill:#000000" id="g2565" transform="matrix(1.487792,0,0,1.487792,-78.780096,-458.22)">
      <path d="M 230.16,660.214 C 230.16,638.798 266.673,621.437 311.714,621.437 C 356.756,621.437 393.268,638.798 393.268,660.214 C 393.268,681.63 356.756,698.991 311.714,698.991 C 266.673,698.991 230.16,681.63 230.16,660.214 z " id="path2567"/>
    </g>
    <g style="fill:#000000" id="g2569" transform="matrix(1.487792,0,0,1.487792,-78.780096,-458.22)">
      <path d="" id="path2571"/>
    </g>
    <g style="fill:#ffffff" id="g2573" transform="matrix(1.487792,0,0,1.487792,-78.780096,-458.22)">
      <path d="M 244.53,654.991 C 244.53,635.559 274.791,619.806 312.122,619.806 C 349.452,619.806 379.714,635.559 379.714,654.991 C 379.714,674.423 349.452,690.176 312.122,690.176 C 274.791,690.176 244.53,674.423 244.53,654.991 z " id="path2575"/>
    </g>
    <g style="fill:#ffffff" id="g2577" transform="matrix(1.487792,0,0,1.487792,-78.780096,-458.22)">
      <path d="" id="path2579"/>
    </g>
    <g style="fill:#000000" id="g2581" transform="matrix(1.487792,0,0,1.487792,-78.780096,-458.22)">
      <path d="M 253.345,652.29 C 253.345,637.051 279.842,624.698 312.529,624.698 C 345.217,624.698 371.714,637.051 371.714,652.29 C 371.714,667.529 345.217,679.883 312.529,679.883 C 279.842,679.883 253.345,667.529 253.345,652.29 z " id="path2583"/>
    </g>
    <g style="fill:#000000" id="g2585" transform="matrix(1.487792,0,0,1.487792,-78.780096,-458.22)">
      <path d="" id="path2587"/>
    </g>
    <g style="fill:#ffffff" id="g2589" transform="matrix(1.487792,0,0,1.487792,-78.780096,-458.22)">
      <path d="M 266.084,644.621 C 266.084,633.168 287.391,623.883 313.676,623.883 C 339.961,623.883 361.268,633.168 361.268,644.621 C 361.268,656.075 339.961,665.36 313.676,665.36 C 287.391,665.36 266.084,656.075 266.084,644.621 z " id="path2591"/>
    </g>
    <g style="fill:#ffffff" id="g2593" transform="matrix(1.487792,0,0,1.487792,-78.780096,-458.22)">
      <path d="" id="path2595"/>
    </g>
    <g style="fill:#000000" id="g2597" transform="matrix(1.487792,0,0,1.487792,-78.780096,-458.22)">
      <path d="M 274.084,639.399 C 274.084,631.645 290.566,625.36 310.899,625.36 C 331.232,625.36 347.714,631.645 347.714,639.399 C 347.714,647.152 331.232,653.437 310.899,653.437 C 290.566,653.437 274.084,647.152 274.084,639.399 z " id="path2599"/>
    </g>
    <g style="fill:#000000" id="g2601" transform="matrix(1.487792,0,0,1.487792,-78.780096,-458.22)">
      <path d="" id="path2603"/>
    </g>
    <g style="fill:#000000" id="g2605" transform="matrix(1.487792,0,0,1.487792,-78.780096,-458.22)">
      <path d="M 189.77,776.186 C 189.77,775.342 189.837,774.508 189.965,773.686 C 191.862,785.766 207.352,795.186 226.181,795.186 C 245.01,795.186 260.5,785.766 262.397,773.686 C 262.526,774.508 262.592,775.342 262.592,776.186 C 262.592,789.441 246.29,800.186 226.181,800.186 C 206.072,800.186 189.77,789.441 189.77,776.186 z " id="path2607"/>
    </g>
    <g style="fill:#ffffff" id="g2609" transform="matrix(1.487792,0,0,1.487792,-78.780096,-458.22)">
      <path d="M 534.775,715.362 C 541.89,723.409 544.216,735.598 541.753,751.927 L 228.53,848.698 C 198.492,855.593 176.614,848.085 162.899,826.176 L 68.264,671.348 C 68.193,663.193 69.928,656.632 73.467,651.665 L 184.453,818.991 C 193.406,826.25 211.802,827.881 239.638,823.883 L 518.16,735.883 C 527.485,729.808 533.023,722.968 534.775,715.362 z " id="path2611"/>
    </g>
    <g style="fill:#000000" id="g2613" transform="matrix(1.487792,0,0,1.487792,-78.780096,-458.22)">
      <path d="M 284.34,395.185 C 285.988,393.093 288.221,391.301 290.924,389.782 L 290.914,640.694 C 287.995,639.134 285.728,637.285 284.34,635.181 L 284.34,395.185 z " id="path2615"/>
    </g>
    <g style="fill:#ffffff" id="g2617" transform="matrix(1.487792,0,0,1.487792,-78.780096,-458.22)">
      <path d="M 302.874,385.55 C 305.453,385.022 308.141,384.66 310.924,384.46 C 310.924,506.384 310.919,594.355 310.913,645.768 C 308.139,645.574 305.459,645.222 302.913,644.722 C 298.339,643.822 294.221,642.457 290.914,640.694 L 290.924,389.782 C 294.332,387.876 298.43,386.465 302.874,385.55 z " id="path2619"/>
    </g>
    <g style="fill:#000000" id="g2621" transform="matrix(1.487792,0,0,1.487792,-78.780096,-458.22)">
      <path d="M 328.041,644.813 C 322.445,645.878 316.541,646.16 310.913,645.768 C 310.919,594.355 310.924,506.384 310.924,384.46 C 316.618,384.055 322.505,384.371 328.002,385.406 C 336.426,386.999 343.892,390.253 348.34,395.185 L 348.34,635.181 C 343.331,640.189 336.002,643.295 328.041,644.813 z " id="path2623"/>
    </g>
    <g style="fill:#000000" id="g2625" transform="matrix(1.487792,0,0,1.487792,-78.780096,-458.22)">
      <path d="M 284.34,395.185 C 295.756,380.69 335.206,380.621 348.34,395.185 L 348.34,406.028 C 337.372,408.386 324.395,409.75 310.488,409.75 C 301.257,409.75 292.436,409.149 284.34,408.055 L 284.34,395.185 z " id="path2627"/>
    </g>
    <g style="fill:#ffffff" id="g2629" transform="matrix(1.487792,0,0,1.487792,-78.780096,-458.22)">
      <path d="M 310.488,404.75 C 316.642,404.75 322.614,404.483 328.31,403.981 L 328.311,408.981 C 322.614,409.483 316.642,409.75 310.488,409.75 C 301.257,409.75 292.436,409.149 284.34,408.055 L 284.34,399.055 C 292.436,400.149 301.257,404.75 310.488,404.75 z " id="path2631"/>
    </g>
  </g>
</svg>