<?xml version="1.0" encoding="UTF-8" standalone="no"?>
<svg
   style="clip-rule:evenodd;fill-rule:evenodd;stroke-linejoin:round;stroke-miterlimit:2"
   version="1.1"
   viewBox="0 0 190 155"
   xml:space="preserve"
   id="svg16"
   sodipodi:docname="blender.svg"
   width="190"
   height="155"
   inkscape:version="1.2.2 (b0a8486541, 2022-12-01)"
   xmlns:inkscape="http://www.inkscape.org/namespaces/inkscape"
   xmlns:sodipodi="http://sodipodi.sourceforge.net/DTD/sodipodi-0.dtd"
   xmlns="http://www.w3.org/2000/svg"
   xmlns:svg="http://www.w3.org/2000/svg"
   xmlns:rdf="http://www.w3.org/1999/02/22-rdf-syntax-ns#"
   xmlns:cc="http://creativecommons.org/ns#"
   xmlns:dc="http://purl.org/dc/elements/1.1/"><defs
   id="defs20">
        
        
    
            
        
            
            
        </defs><sodipodi:namedview
   id="namedview18"
   pagecolor="#ffffff"
   bordercolor="#000000"
   borderopacity="0.25"
   inkscape:showpageshadow="2"
   inkscape:pageopacity="0.0"
   inkscape:pagecheckerboard="0"
   inkscape:deskcolor="#d1d1d1"
   showgrid="false"
   inkscape:zoom="2.7015154"
   inkscape:cx="183.97082"
   inkscape:cy="107.16208"
   inkscape:window-width="1920"
   inkscape:window-height="1052"
   inkscape:window-x="2560"
   inkscape:window-y="0"
   inkscape:window-maximized="1"
   inkscape:current-layer="svg16"
   showguides="true" />
    <title
   id="title2">Blender logo (without text)</title>
    <g
   id="g1674"
   transform="matrix(1.4931601,0,0,1.4931601,1.8143834,-16.096765)"><path
     d="m 47.091952,69.45134 c 0.443686,-7.91101 4.311291,-14.901162 10.171299,-19.840311 5.734436,-4.855435 13.436161,-7.827296 21.891315,-7.827296 8.413296,0 16.115021,2.967674 21.849454,7.827296 5.86001,4.939149 9.71087,11.929301 10.1713,19.840311 0.44369,8.120297 -2.82536,15.69645 -8.53887,21.305314 -5.860004,5.69258 -14.14773,9.292296 -23.481884,9.292296 -9.334155,0 -17.663738,-3.574602 -23.481888,-9.292296 C 49.938241,85.14779 46.67338,77.613494 47.133809,69.493198 Z"
     style="fill:#ffffff;fill-rule:nonzero;stroke-width:4.18572"
     id="path4" /><path
     d="m 64.629333,68.482474 c 0.228006,-4.06538 2.215524,-7.657542 5.226917,-10.195716 2.946863,-2.495154 6.904694,-4.02236 11.249703,-4.02236 4.3235,0 8.281331,1.525055 11.228194,4.02236 3.011392,2.538174 4.990308,6.130336 5.226918,10.195716 0.228007,4.17293 -1.451922,8.06623 -4.38803,10.948564 -3.011393,2.925353 -7.270363,4.775208 -12.067082,4.775208 -4.796718,0 -9.077197,-1.83695 -12.067081,-4.775208 -2.946863,-2.882334 -4.624639,-6.754124 -4.388029,-10.927054 z"
     style="fill:#265787;fill-rule:nonzero;stroke-width:2.151"
     id="path8" /><path
     d="m 38.817395,77.086453 c 0.02796,1.591736 0.535598,4.689169 1.29705,7.098283 1.60034,5.119368 4.323499,9.851557 8.08774,14.002975 3.871791,4.280479 8.647,7.722079 14.153546,10.174209 5.786177,2.55968 12.067081,3.87179 18.584596,3.87179 6.517515,-0.009 12.798419,-1.34222 18.584597,-3.93632 5.506546,-2.47365 10.281756,-5.91524 14.153546,-10.217223 3.78575,-4.194444 6.49601,-8.926633 8.08774,-14.046 0.80662,-2.581194 1.3164,-5.205408 1.52075,-7.829621 0.20005,-2.581195 0.11615,-5.183899 -0.25166,-7.786602 -0.71843,-5.054838 -2.47365,-9.808537 -5.16239,-14.110527 -2.45214,-3.97934 -5.63561,-7.442441 -9.42136,-10.367794 l 0.009,-0.0064 -38.072608,-29.25353 c -0.03441,-0.02582 -0.06238,-0.05378 -0.09895,-0.07744 -2.495154,-1.918688 -6.711104,-1.912235 -9.442868,0.01075 -2.774783,1.944499 -3.097432,5.162388 -0.623788,7.184323 l -0.01075,0.01075 15.895852,12.927479 -48.397385,0.05162 h -0.06453 c -4.00085,0.0043 -7.851131,2.624214 -8.603979,5.958255 -0.782962,3.377063 1.935895,6.194865 6.108826,6.194865 l -0.0064,0.01505 24.521341,-0.04732 -43.8802946,33.55552 c -0.055926,0.04087 -0.1161537,0.08389 -0.1677776,0.124757 -4.1299101,3.161963 -5.46352692,8.431901 -2.8608231,11.744433 2.6457236,3.377062 8.2598203,3.398572 12.4327503,0.01936 L 39.064759,72.77801 c 0,0 -0.348461,2.645724 -0.320498,4.215951 z m 61.518455,8.840589 c -4.925781,5.011819 -11.830474,7.872641 -19.272916,7.872641 -7.463953,0.01291 -14.368646,-2.796293 -19.294425,-7.808111 -2.409114,-2.452134 -4.172929,-5.248427 -5.269936,-8.238311 -1.069045,-2.946862 -1.484187,-6.065805 -1.208859,-9.206258 0.26027,-3.075922 1.176593,-6.022785 2.645723,-8.668509 1.436864,-2.602704 3.420082,-4.968797 5.850706,-6.969223 4.796718,-3.8933 10.884034,-6.022785 17.250978,-6.022785 6.388455,-0.0086 12.475771,2.084313 17.272485,5.979765 2.430624,1.98752 4.409544,4.34501 5.850704,6.947714 1.46914,2.645723 2.38761,5.571076 2.64573,8.668509 0.27103,3.140453 -0.14412,6.259395 -1.21316,9.206258 -1.09271,3.011392 -2.86083,5.807686 -5.26994,8.25982 z"
     style="fill:#ea7600;fill-rule:nonzero;stroke:#ffffff;stroke-width:1.94986;stroke-dasharray:none;stroke-opacity:1"
     id="path10" /></g>
<metadata
   id="metadata76"><rdf:RDF><cc:Work
       rdf:about=""><dc:title>Blender logo (without text)</dc:title></cc:Work></rdf:RDF></metadata></svg>
