<?xml version="1.0" encoding="UTF-8" standalone="no"?>
<svg
   width="155"
   height="155"
   viewBox="0 0 155 155"
   version="1.1"
   id="svg8"
   sodipodi:docname="flameshot.svg"
   inkscape:version="1.2.2 (b0a8486541, 2022-12-01)"
   xmlns:inkscape="http://www.inkscape.org/namespaces/inkscape"
   xmlns:sodipodi="http://sodipodi.sourceforge.net/DTD/sodipodi-0.dtd"
   xmlns="http://www.w3.org/2000/svg"
   xmlns:svg="http://www.w3.org/2000/svg">
  <defs
     id="defs12" />
  <sodipodi:namedview
     id="namedview10"
     pagecolor="#ffffff"
     bordercolor="#000000"
     borderopacity="0.25"
     inkscape:showpageshadow="2"
     inkscape:pageopacity="0.0"
     inkscape:pagecheckerboard="0"
     inkscape:deskcolor="#d1d1d1"
     showgrid="false"
     inkscape:zoom="2.7581375"
     inkscape:cx="95.716765"
     inkscape:cy="92.634975"
     inkscape:window-width="1920"
     inkscape:window-height="1052"
     inkscape:window-x="2560"
     inkscape:window-y="0"
     inkscape:window-maximized="1"
     inkscape:current-layer="svg8" />
  <g
     id="flameshot-Copy"
     transform="matrix(0.95084048,0,0,0.95084048,6.5237628,2.8381808)">
    <path
       d="M 56.333,42.4132 C 123.747,29.4008 126.337,0 126.337,0 c 0,0 -5.309,91.1176 -54.5763,95.9384 C 9.32758,102.047 0,131.5 0,131.5 c 0,0 16.6961,-81.4361 56.333,-89.0868 z"
       transform="translate(22.95459,25.263733)"
       id="Shape"
       fill="#ff0066"
       fill-rule="evenodd"
       stroke="none" />
    <path
       d="M 19.8032,63.6564 C 76.9256,39.4645 71.6937,0 71.6937,0 c 0,0 31.5373,80.5099 -15.7413,99.2794 C 3.13699,120.247 5.48706,156.062 5.48706,156.062 c 0,0 -19.23256,-78.1974 14.31614,-92.4056 z"
       transform="translate(18.807129)"
       id="path3"
       fill="#ff6600"
       fill-rule="evenodd"
       stroke="none" />
    <path
       d="M 4.95781,72.0008 C 37.051,29.6815 29.8325,0 29.8325,0 c 0,0 41.1182,51.5593 13.1385,83.4933 -31.2563,35.6737 -17.6441,60.4917 -17.6441,60.4917 0,0 -38.7766,-47.7115 -20.36909,-71.9842 z"
       transform="translate(0,13.058838)"
       id="path5"
       fill="#ffcc00"
       fill-rule="evenodd"
       stroke="none" />
  </g>
</svg>
