<?xml version="1.0" encoding="UTF-8" standalone="no"?>
<svg
   width="155"
   height="155"
   version="1.0"
   id="svg34"
   sodipodi:docname="gnome-chess.svg"
   inkscape:version="1.2.2 (b0a8486541, 2022-12-01)"
   xmlns:inkscape="http://www.inkscape.org/namespaces/inkscape"
   xmlns:sodipodi="http://sodipodi.sourceforge.net/DTD/sodipodi-0.dtd"
   xmlns:xlink="http://www.w3.org/1999/xlink"
   xmlns="http://www.w3.org/2000/svg"
   xmlns:svg="http://www.w3.org/2000/svg">
  <sodipodi:namedview
     id="namedview36"
     pagecolor="#ffffff"
     bordercolor="#000000"
     borderopacity="0.25"
     inkscape:showpageshadow="2"
     inkscape:pageopacity="0.0"
     inkscape:pagecheckerboard="0"
     inkscape:deskcolor="#d1d1d1"
     showgrid="false"
     inkscape:zoom="3.6432046"
     inkscape:cx="88.932693"
     inkscape:cy="76.443688"
     inkscape:window-width="1920"
     inkscape:window-height="1052"
     inkscape:window-x="2560"
     inkscape:window-y="0"
     inkscape:window-maximized="1"
     inkscape:current-layer="svg34" />
  <defs
     id="defs14">
    <linearGradient
       id="b">
      <stop
         offset="0"
         stop-color="#8c839c"
         id="stop2" />
      <stop
         offset="1"
         stop-color="#3d3846"
         id="stop4" />
    </linearGradient>
    <linearGradient
       id="a">
      <stop
         offset="0"
         stop-color="#fff"
         id="stop7" />
      <stop
         offset="1"
         stop-color="#fff"
         stop-opacity="0"
         id="stop9" />
    </linearGradient>
    <radialGradient
       xlink:href="#a"
       id="d"
       cx="86"
       cy="218"
       fx="86"
       fy="218"
       r="20"
       gradientUnits="userSpaceOnUse" />
    <radialGradient
       xlink:href="#b"
       id="c"
       cx="30.493"
       cy="197.655"
       fx="30.493"
       fy="197.655"
       r="31.25"
       gradientTransform="matrix(1.50912,0,0,2.10236,-15.525,-227.004)"
       gradientUnits="userSpaceOnUse" />
  </defs>
  <g
     transform="matrix(1.3679794,0,0,1.3679794,-7.4645165,-240.93551)"
     id="g32">
    <path
       d="m 32.236,180.93 -0.017,9.25 -7.194,5.811 -0.002,0.002 a 28.75,28.75 0 0 0 -3.488,2.981 l -13.082,7.338 -0.234,3.619 4.75,9.5 11.613,-3.94 a 9.75,9.75 0 0 0 7.637,3.69 9.75,9.75 0 0 0 9.715,-9.059 l 0.011,-0.004 0.274,9.313 c -0.007,4.634 -3.153,8.214 -7.663,9.277 -4.025,0.948 -5.303,-0.288 -10.138,1.684 -6.647,2.71 -11.466,6.678 -11.914,13.59 L 12.469,248 22.465,258 C 17.878,258 12,264 12,264 v 4 h 58 v -4 c 0,0 1,-6 -9.74,-6 L 70.719,247.806 V 219.18 c 0,-15.878 -12.872,-28.75 -28.75,-28.75 -0.17,0.007 -0.34,0.015 -0.51,0.025 a 9.251,9.251 0 0 0 -0.225,-2.341 9.25,9.25 0 0 0 -8.998,-7.184 z"
       style="marker:none"
       id="path16" />
    <path
       style="fill:url(#c);marker:none"
       d="m 32.033,178.062 -0.017,9.25 -23.563,19 4.75,9.5 11.613,-3.94 a 9.75,9.75 0 0 0 7.637,3.69 c 5.113,-0.006 9.184,-3.96 9.547,-9.059 v -0.004 9.313 c -0.007,4.634 -2.7,8.214 -7.21,9.276 -4.024,0.948 -5.303,-0.287 -10.138,1.684 -7.348,2.996 -12.147,9.275 -12.148,17.21 l 10.195,10.399 C 17.052,254.38 12,258.625 12,264 h 58 c 0,-6.005 -4.498,-9.62 -9.505,-9.62 l 10.458,-10.193 v -28.625 c 0,-15.879 -12.872,-28 -28.75,-28 -0.17,0.007 -0.34,0.015 -0.51,0.025 a 9.251,9.251 0 0 0 -0.224,-2.342 c -0.962,-4.197 -5.13,-7.175 -9.436,-7.183 z"
       fill="url(#c)"
       id="path18" />
    <path
       style="marker:none"
       d="m 32.47,177.313 -0.005,2.921 a 9.243,9.243 0 0 1 5.004,6.262 c 0.174,0.768 0.25,1.555 0.224,2.342 0.17,-0.01 0.34,-0.018 0.51,-0.025 15.878,0 28.75,12.871 28.75,28.75 v 28.625 l -6.457,8.193 10.457,-10.193 v -28.625 c 0,-15.879 -12.872,-28.75 -28.75,-28.75 -0.17,0.007 -0.34,0.015 -0.51,0.025 a 9.251,9.251 0 0 0 -0.224,-2.342 9.25,9.25 0 0 0 -8.998,-7.183 z m -14.558,78.265 c -0.6,0.32 -1.166,0.694 -1.687,1.12 0.793,-0.2 1.619,-0.317 2.474,-0.317 z"
       fill="#ffffff"
       fill-opacity="0.071"
       id="path20" />
    <path
       d="m 85.821,206.371 c -12.313,0 -22.03,9.982 -22.03,22.295 a 22.295,22.295 0 0 0 15.201,21.115 l -6,27.595 -16.897,6.37 v 4.372 L 116,288.243 V 284 l -17.528,-6.624 -5.56,-27.602 a 22.294,22.294 0 0 0 15.203,-21.108 c 0,-12.313 -9.981,-22.295 -22.294,-22.295 z"
       style="marker:none"
       fill="#9a9996"
       id="path22" />
    <path
       style="marker:none"
       d="m 85.998,202.084 c -12.215,0 -22.118,9.902 -22.118,22.117 a 22.119,22.119 0 0 0 15.08,20.948 L 64,276 c -3.716,0 -7.905,4.207 -7.905,7.923 L 116,284 c 0,-3.716 -4.284,-8 -8,-8 L 93.032,245.142 a 22.118,22.118 0 0 0 15.083,-20.94 c 0,-12.216 -9.902,-22.118 -22.117,-22.118 z"
       fill="#deddda"
       id="path24" />
    <circle
       style="fill:url(#d);marker:none"
       cx="86"
       cy="224"
       r="20"
       fill="url(#d)"
       id="circle26" />
    <path
       style="marker:none"
       d="m 116,284 c 0,-3.465 -4.198,-6 -8,-6 H 64 c -4.34,0 -7.905,2.122 -7.905,5.923 C 56.095,280.118 59.93,276 64,276 h 44 c 4.244,0 8,4.007 8,8 z"
       fill="#f6f5f4"
       id="path28" />
    <path
       style="marker:none"
       d="M 64.097,224.078 A 22,22 0 0 0 64,226 22,22 0 0 0 86,248 22,22 0 0 0 108,226 22,22 0 0 0 107.903,224.096 22,22 0 0 1 86,244.174 22,22 0 0 1 64.097,224.078 Z"
       fill="#c0bfbc"
       id="path30" />
  </g>
</svg>
