<?xml version="1.0" encoding="UTF-8" standalone="no"?>
<svg
   width="155"
   height="155"
   version="1.1"
   id="svg26"
   sodipodi:docname="gnome-weather.svg"
   inkscape:version="1.2.2 (b0a8486541, 2022-12-01)"
   xmlns:inkscape="http://www.inkscape.org/namespaces/inkscape"
   xmlns:sodipodi="http://sodipodi.sourceforge.net/DTD/sodipodi-0.dtd"
   xmlns="http://www.w3.org/2000/svg"
   xmlns:svg="http://www.w3.org/2000/svg">
  <sodipodi:namedview
     id="namedview28"
     pagecolor="#ffffff"
     bordercolor="#000000"
     borderopacity="0.25"
     inkscape:showpageshadow="2"
     inkscape:pageopacity="0.0"
     inkscape:pagecheckerboard="0"
     inkscape:deskcolor="#d1d1d1"
     showgrid="false"
     inkscape:zoom="1.207867"
     inkscape:cx="69.544081"
     inkscape:cy="186.69274"
     inkscape:window-width="1920"
     inkscape:window-height="1052"
     inkscape:window-x="2560"
     inkscape:window-y="0"
     inkscape:window-maximized="1"
     inkscape:current-layer="svg26" />
  <defs
     id="defs14">
    <radialGradient
       id="a"
       gradientUnits="userSpaceOnUse"
       cx="280.99399"
       cy="488.84799"
       fx="280.99399"
       fy="488.84799"
       r="224"
       gradientTransform="matrix(1.3775726,0,0,1.3586359,-138.95704,-519.97694)">
      <stop
         offset="0"
         stop-color="#fdfacf"
         id="stop2" />
      <stop
         offset=".4"
         stop-color="#f9f06b"
         id="stop4" />
      <stop
         offset="1"
         stop-color="#e5a50a"
         id="stop6" />
    </radialGradient>
    <linearGradient
       id="b"
       gradientUnits="userSpaceOnUse"
       x1="85"
       y1="107.162"
       x2="85"
       y2="86"
       gradientTransform="matrix(3.9699498,0,0,3.9699498,-29.759598,9.9398997)">
      <stop
         offset="0"
         stop-color="#eef4fc"
         id="stop9" />
      <stop
         offset="1"
         stop-color="#fff"
         id="stop11" />
    </linearGradient>
  </defs>
  <g
     id="g200"
     transform="matrix(0.2987414,0,0,0.2987414,3.3712396,3.3712396)">
    <path
       d="M 73.459096,73.459096 H 422.81467 V 422.81467 H 73.459096 Z m 0,0"
       fill="#f5c211"
       id="path16"
       style="stroke-width:3.96995" />
    <path
       d="M 494.27377,248.13688 248.13688,494.27377 2,248.13688 248.13688,2 Z m 0,0"
       fill="#f6d32d"
       id="path18"
       style="stroke-width:3.96995" />
    <path
       d="m 438.69447,248.13688 c 0,105.23543 -85.32216,190.55759 -190.55759,190.55759 -105.23542,0 -190.557583,-85.32216 -190.557583,-190.55759 0,-105.23542 85.322163,-190.557583 190.557583,-190.557583 105.23543,0 190.55759,85.322163 190.55759,190.557583 z m 0,0"
       fill="url(#a)"
       id="path20"
       style="fill:url(#a);stroke-width:3.96995" />
    <path
       d="m 351.35558,279.89648 a 79.375175,79.375175 0 0 0 -72.07841,46.32138 59.612766,59.612766 0 0 0 -27.17034,-6.62188 c -31.3229,0.0318 -57.27049,24.33182 -59.35074,55.5793 h -0.1985 c -16.26886,0 -30.23911,9.8018 -36.36474,23.8197 h -3.33476 v 15.87979 c 0,21.92604 17.77347,39.6995 39.6995,39.6995 h 222.31718 c 26.3168,0 47.6394,-21.3226 47.6394,-47.63939 v -15.8798 h -2.80675 a 47.611607,47.611607 0 0 0 -29.09179,-29.03225 c 0.0595,-0.91308 0.10718,-1.81426 0.13894,-2.72735 0,-43.85604 -35.54296,-79.399 -79.39899,-79.399 z m 0,0"
       fill="#dceafa"
       id="path22"
       style="stroke-width:3.96995" />
    <path
       d="m 351.35558,264.01668 a 79.375175,79.375175 0 0 0 -72.07841,46.32138 59.612766,59.612766 0 0 0 -27.17034,-6.62188 c -31.3229,0.0318 -57.27049,24.33182 -59.35074,55.5793 h -0.1985 c -21.92603,0 -39.6995,17.77346 -39.6995,39.6995 0,21.92603 17.77347,39.69949 39.6995,39.69949 h 222.31718 c 26.3168,0 47.6394,-21.3226 47.6394,-47.63939 a 47.627487,47.627487 0 0 0 -31.89854,-44.91205 c 0.0595,-0.91308 0.10718,-1.81426 0.13894,-2.72735 0,-43.85604 -35.54296,-79.399 -79.39899,-79.399 z m 0,0"
       fill="url(#b)"
       id="path24"
       style="fill:url(#b);stroke-width:3.96995" />
  </g>
</svg>
