<?xml version="1.0" encoding="UTF-8" standalone="no"?>
<!-- Created with Inkscape (http://www.inkscape.org/) -->

<svg
   version="1.0"
   width="210"
   height="155"
   viewBox="0 0 31.898734 23.544304"
   id="svg11300"
   sodipodi:docname="org.signal.Signal.svg"
   inkscape:version="1.1.2 (0a00cf5339, 2022-02-04)"
   xmlns:inkscape="http://www.inkscape.org/namespaces/inkscape"
   xmlns:sodipodi="http://sodipodi.sourceforge.net/DTD/sodipodi-0.dtd"
   xmlns:xlink="http://www.w3.org/1999/xlink"
   xmlns="http://www.w3.org/2000/svg"
   xmlns:svg="http://www.w3.org/2000/svg">
  <sodipodi:namedview
     id="namedview80"
     pagecolor="#ffffff"
     bordercolor="#000000"
     borderopacity="0.25"
     inkscape:showpageshadow="2"
     inkscape:pageopacity="0.0"
     inkscape:pagecheckerboard="0"
     inkscape:deskcolor="#d1d1d1"
     showgrid="false"
     inkscape:zoom="2.6677215"
     inkscape:cx="155.37604"
     inkscape:cy="157.81258"
     inkscape:window-width="2560"
     inkscape:window-height="1352"
     inkscape:window-x="2560"
     inkscape:window-y="0"
     inkscape:window-maximized="1"
     inkscape:current-layer="svg11300"
     inkscape:pageshadow="2" />
  <defs
     id="defs3">
    <linearGradient
       id="linearGradient8542">
      <stop
         style="stop-color:#5b676b;stop-opacity:1"
         offset="0"
         id="stop8544" />
      <stop
         style="stop-color:#141718;stop-opacity:1"
         offset="1"
         id="stop8546" />
    </linearGradient>
    <linearGradient
       id="linearGradient8534">
      <stop
         style="stop-color:black;stop-opacity:1"
         offset="0"
         id="stop8536" />
      <stop
         style="stop-color:black;stop-opacity:0"
         offset="1"
         id="stop8538" />
    </linearGradient>
    <linearGradient
       id="linearGradient8524">
      <stop
         style="stop-color:white;stop-opacity:1"
         offset="0"
         id="stop8526" />
      <stop
         style="stop-color:white;stop-opacity:0"
         offset="1"
         id="stop8528" />
    </linearGradient>
    <linearGradient
       id="linearGradient2446">
      <stop
         style="stop-color:white;stop-opacity:1"
         offset="0"
         id="stop2448" />
      <stop
         style="stop-color:white;stop-opacity:0"
         offset="1"
         id="stop2450" />
    </linearGradient>
    <linearGradient
       x1="13.236155"
       y1="37.752247"
       x2="7.7521091"
       y2="42.282146"
       id="linearGradient2452"
       xlink:href="#linearGradient2446"
       gradientUnits="userSpaceOnUse"
       gradientTransform="matrix(0.755165,0.395143,-0.395143,0.755165,-25.91245,6.532586)" />
    <linearGradient
       id="linearGradient6963">
      <stop
         style="stop-color:#696969;stop-opacity:1"
         offset="0"
         id="stop6965" />
      <stop
         style="stop-color:black;stop-opacity:1"
         offset="1"
         id="stop6967" />
    </linearGradient>
    <radialGradient
       cx="15.415101"
       cy="35.356506"
       r="7.5791559"
       fx="15.415101"
       fy="35.356506"
       id="radialGradient6969"
       xlink:href="#linearGradient6963"
       gradientUnits="userSpaceOnUse"
       gradientTransform="matrix(1.572694,0,0,1.532639,-55.36682,-21.35823)" />
    <linearGradient
       id="linearGradient6939">
      <stop
         style="stop-color:#bdbdbd;stop-opacity:1"
         offset="0"
         id="stop6941" />
      <stop
         style="stop-color:#e2e2e2;stop-opacity:1"
         offset="0.33333334"
         id="stop6947" />
      <stop
         style="stop-color:#a3a3a3;stop-opacity:1"
         offset="0.66666669"
         id="stop6949" />
      <stop
         style="stop-color:#ddd;stop-opacity:1"
         offset="1"
         id="stop6943" />
    </linearGradient>
    <linearGradient
       x1="19.394735"
       y1="30.001331"
       x2="23.109331"
       y2="33.438831"
       id="linearGradient6945"
       xlink:href="#linearGradient6939"
       gradientUnits="userSpaceOnUse"
       gradientTransform="translate(-46.40695,-1.802856)" />
    <linearGradient
       id="linearGradient6951">
      <stop
         style="stop-color:#6e3d09;stop-opacity:1"
         offset="0"
         id="stop6953" />
      <stop
         style="stop-color:#ea8113;stop-opacity:1"
         offset="0.24242425"
         id="stop6959" />
      <stop
         style="stop-color:#5c3307;stop-opacity:1"
         offset="0.62121212"
         id="stop6961" />
      <stop
         style="stop-color:#e07c12;stop-opacity:1"
         offset="1"
         id="stop6955" />
    </linearGradient>
    <linearGradient
       x1="37.017639"
       y1="19.239889"
       x2="27.753893"
       y2="11.182488"
       id="linearGradient6957"
       xlink:href="#linearGradient6951"
       gradientUnits="userSpaceOnUse"
       gradientTransform="translate(-49.30496,1.877723)" />
    <linearGradient
       id="linearGradient6500">
      <stop
         style="stop-color:#857c63;stop-opacity:1"
         offset="0"
         id="stop6502" />
      <stop
         style="stop-color:#221f19;stop-opacity:1"
         offset="1"
         id="stop6504" />
    </linearGradient>
    <linearGradient
       id="linearGradient6492">
      <stop
         style="stop-color:black;stop-opacity:1"
         offset="0"
         id="stop6494" />
      <stop
         style="stop-color:black;stop-opacity:0"
         offset="1"
         id="stop6496" />
    </linearGradient>
    <linearGradient
       id="linearGradient6482">
      <stop
         style="stop-color:black;stop-opacity:1"
         offset="0"
         id="stop6484" />
      <stop
         style="stop-color:black;stop-opacity:0"
         offset="1"
         id="stop6486" />
    </linearGradient>
    <linearGradient
       id="linearGradient6468">
      <stop
         style="stop-color:white;stop-opacity:1"
         offset="0"
         id="stop6470" />
      <stop
         style="stop-color:#b9b9b0;stop-opacity:1"
         offset="1"
         id="stop6472" />
    </linearGradient>
    <linearGradient
       id="linearGradient6452">
      <stop
         style="stop-color:white;stop-opacity:1"
         offset="0"
         id="stop6454" />
      <stop
         style="stop-color:white;stop-opacity:0"
         offset="1"
         id="stop6456" />
    </linearGradient>
    <linearGradient
       x1="6.3051529"
       y1="23.362427"
       x2="5.9846287"
       y2="31.57"
       id="linearGradient6458"
       xlink:href="#linearGradient6452"
       gradientUnits="userSpaceOnUse" />
    <radialGradient
       cx="69.473244"
       cy="19.597878"
       r="3.5153139"
       fx="69.473244"
       fy="19.597878"
       id="radialGradient6474"
       xlink:href="#linearGradient6468"
       gradientUnits="userSpaceOnUse"
       gradientTransform="matrix(1.318488,0,0,1.318488,-22.1264,-6.241691)" />
    <radialGradient
       cx="23"
       cy="33.9375"
       r="18.25"
       fx="23"
       fy="33.9375"
       id="radialGradient6498"
       xlink:href="#linearGradient6492"
       gradientUnits="userSpaceOnUse"
       gradientTransform="matrix(1,0,0,0.284247,0,24.29088)" />
    <linearGradient
       x1="14.96875"
       y1="19.110678"
       x2="39.524544"
       y2="46.98568"
       id="linearGradient8530"
       xlink:href="#linearGradient8524"
       gradientUnits="userSpaceOnUse" />
    <radialGradient
       cx="6.0242186"
       cy="25.271027"
       r="4.8310289"
       fx="6.0242186"
       fy="25.271027"
       id="radialGradient8548"
       xlink:href="#linearGradient8542"
       gradientUnits="userSpaceOnUse"
       gradientTransform="matrix(0.916159,0.09318684,-0.108765,1.069309,3.253668,-3.029272)" />
    <linearGradient
       x1="26.162951"
       y1="30.543303"
       x2="24.328892"
       y2="30.985245"
       id="linearGradient4330"
       xlink:href="#linearGradient8534"
       gradientUnits="userSpaceOnUse" />
    <linearGradient
       x1="32.350136"
       y1="28.083355"
       x2="21.213203"
       y2="30.293064"
       id="linearGradient4351"
       xlink:href="#linearGradient6482"
       gradientUnits="userSpaceOnUse"
       gradientTransform="translate(-3.836549,0.345971)" />
    <radialGradient
       cx="18.557627"
       cy="22.300018"
       r="19.2292"
       fx="18.557627"
       fy="22.300018"
       id="radialGradient4354"
       xlink:href="#linearGradient6500"
       gradientUnits="userSpaceOnUse"
       gradientTransform="matrix(1.77275,0,0,1.29668,-16.3404,-6.615959)" />
    <radialGradient
       cx="69.473244"
       cy="19.597878"
       r="3.5153139"
       fx="69.473244"
       fy="19.597878"
       id="radialGradient4363"
       xlink:href="#linearGradient6468"
       gradientUnits="userSpaceOnUse"
       gradientTransform="matrix(1.318488,0,0,1.318488,-22.1264,-6.241691)" />
  </defs>
  <g
     id="g6"
     transform="matrix(0.18540817,0,0,0.18540817,4.5588162,0.37974691)"
     style="fill:#3a76f0;fill-opacity:1">
    <path
       class="st0"
       d="M 61.44,11.52 C 33.87,11.53 11.53,33.9 11.55,61.46 c 0,9.4 2.65,18.59 7.65,26.54 l -4.8,20.48 20.48,-4.8 c 23.33,14.69 54.15,7.69 68.84,-15.64 C 118.41,64.71 111.41,33.89 88.08,19.2 80.11,14.17 70.87,11.51 61.44,11.52 Z m -28.51,97.82 -8.25,1.92 1.31,5.61 6.07,-1.41 c 4.6,2.51 9.51,4.41 14.6,5.66 l 1.38,-5.59 c -5.3,-1.32 -10.38,-3.42 -15.07,-6.23 z M 6.05,96.86 l 5.61,1.3 1.92,-8.25 C 10.78,85.21 8.69,80.11 7.39,74.8 L 1.8,76.18 c 1.25,5.09 3.16,10 5.66,14.6 z M 19.57,112.42 7.68,115.2 10.45,103.31 4.84,102 2.07,113.89 c -0.73,3.1 1.2,6.2 4.29,6.92 0.86,0.2 1.76,0.2 2.63,0 l 11.88,-2.73 z M 53.1,6.38 c 5.53,-0.83 11.15,-0.83 16.68,0 l 0.86,-5.69 c -6.1,-0.92 -12.31,-0.92 -18.41,0 z m 60.95,23.3 -4.93,2.96 c 2.89,4.79 5.04,9.99 6.38,15.42 l 5.59,-1.38 c -1.48,-5.99 -3.85,-11.72 -7.04,-17 z M 16.62,28.42 c 3.32,-4.5 7.3,-8.48 11.8,-11.8 l -3.46,-4.64 c -4.95,3.65 -9.33,8.03 -12.98,12.98 z m 77.84,-11.8 c 4.5,3.32 8.48,7.3 11.8,11.8 l 4.64,-3.46 c -3.65,-4.95 -8.03,-9.33 -12.98,-12.98 z m 11.8,77.85 c -3.32,4.5 -7.3,8.47 -11.8,11.79 l 3.42,4.64 c 4.96,-3.65 9.35,-8.03 13.02,-12.98 z M 69.78,116.5 c -5.53,0.83 -11.15,0.83 -16.68,0 l -0.86,5.7 c 6.1,0.92 12.31,0.92 18.41,0 z m 51.3,-40.31 -5.59,-1.38 c -1.34,5.44 -3.49,10.64 -6.38,15.44 l 4.93,2.97 c 3.2,-5.29 5.57,-11.04 7.04,-17.03 z m -3.96,-14.75 c 0,2.79 -0.21,5.58 -0.63,8.34 l 5.69,0.87 c 0.92,-6.1 0.92,-12.31 0,-18.41 l -5.69,0.86 c 0.42,2.76 0.63,5.55 0.63,8.34 z m -23.92,52.61 -2.96,-4.93 c -4.79,2.89 -9.99,5.04 -15.42,6.38 l 1.38,5.59 c 5.99,-1.48 11.72,-3.85 17,-7.04 z M 5.76,61.44 c 0,-2.79 0.21,-5.58 0.62,-8.34 L 0.69,52.24 c -0.92,6.1 -0.92,12.31 0,18.41 L 6.38,69.78 C 5.97,67.02 5.76,64.23 5.76,61.44 Z M 8.83,29.68 C 5.64,34.97 3.27,40.7 1.79,46.69 l 5.59,1.38 C 8.72,42.63 10.87,37.43 13.76,32.63 Z M 76.18,1.79 74.8,7.38 c 5.44,1.34 10.64,3.49 15.44,6.38 L 93.21,8.83 C 87.93,5.64 82.18,3.27 76.18,1.79 Z m -29.49,0 1.38,5.59 C 42.63,8.72 37.43,10.87 32.63,13.76 L 29.67,8.83 C 34.97,5.64 40.7,3.27 46.69,1.79 Z"
       id="path4"
       style="fill:#3a76f0;fill-opacity:1" />
  </g>
</svg>
