<?xml version="1.0" encoding="UTF-8" standalone="no"?>
<!-- Created with Inkscape (http://www.inkscape.org/) -->

<svg
   xmlns:dc="http://purl.org/dc/elements/1.1/"
   xmlns:cc="http://creativecommons.org/ns#"
   xmlns:rdf="http://www.w3.org/1999/02/22-rdf-syntax-ns#"
   xmlns:svg="http://www.w3.org/2000/svg"
   xmlns="http://www.w3.org/2000/svg"
   xmlns:sodipodi="http://sodipodi.sourceforge.net/DTD/sodipodi-0.dtd"
   xmlns:inkscape="http://www.inkscape.org/namespaces/inkscape"
   width="307.97501mm"
   height="62.371113mm"
   viewBox="0 0 1091.25 221.00001"
   id="svg11004"
   version="1.1"
   inkscape:version="0.91 r13725"
   sodipodi:docname="featured-polari.svg">
  <defs
     id="defs11006" />
  <sodipodi:namedview
     id="base"
     pagecolor="#ffffff"
     bordercolor="#666666"
     borderopacity="1.0"
     inkscape:pageopacity="0.0"
     inkscape:pageshadow="2"
     inkscape:zoom="1.4"
     inkscape:cx="508.76425"
     inkscape:cy="-95.673007"
     inkscape:document-units="px"
     inkscape:current-layer="layer1"
     showgrid="false"
     fit-margin-top="0"
     fit-margin-left="0"
     fit-margin-right="0"
     fit-margin-bottom="0"
     inkscape:window-width="2560"
     inkscape:window-height="1403"
     inkscape:window-x="2560"
     inkscape:window-y="0"
     inkscape:window-maximized="1" />
  <metadata
     id="metadata11009">
    <rdf:RDF>
      <cc:Work
         rdf:about="">
        <dc:format>image/svg+xml</dc:format>
        <dc:type
           rdf:resource="http://purl.org/dc/dcmitype/StillImage" />
        <dc:title></dc:title>
      </cc:Work>
    </rdf:RDF>
  </metadata>
  <g
     inkscape:label="Layer 1"
     inkscape:groupmode="layer"
     id="layer1"
     transform="translate(-4.5,40.6378)">
    <g
       transform="translate(0,-201.35208)"
       id="g10969"
       inkscape:export-filename="/home/jimmac/checkout/gnome/gnome-software/data/featured-polari.png"
       inkscape:export-xdpi="90"
       inkscape:export-ydpi="90">
      <path
         sodipodi:nodetypes="cccc"
         inkscape:connector-curvature="0"
         id="path10895"
         d="m 9.5,235 260,0 0,86 52.5,0"
         style="color:#000000;clip-rule:nonzero;display:inline;overflow:visible;visibility:visible;opacity:1;isolation:auto;mix-blend-mode:normal;color-interpolation:sRGB;color-interpolation-filters:linearRGB;solid-color:#000000;solid-opacity:1;fill:none;fill-opacity:1;fill-rule:nonzero;stroke:#a8c74f;stroke-width:10;stroke-linecap:square;stroke-linejoin:miter;stroke-miterlimit:4;stroke-dasharray:none;stroke-dashoffset:0;stroke-opacity:1;marker:none;marker-start:none;marker-mid:none;marker-end:none;paint-order:normal;color-rendering:auto;image-rendering:auto;shape-rendering:auto;text-rendering:auto;enable-background:accumulate" />
      <path
         sodipodi:nodetypes="cccc"
         inkscape:connector-curvature="0"
         id="path10239"
         d="m 9.5,195 243.5,0 0,108 70,0"
         style="color:#000000;clip-rule:nonzero;display:inline;overflow:visible;visibility:visible;opacity:1;isolation:auto;mix-blend-mode:normal;color-interpolation:sRGB;color-interpolation-filters:linearRGB;solid-color:#000000;solid-opacity:1;fill:none;fill-opacity:1;fill-rule:nonzero;stroke:#c2754a;stroke-width:10;stroke-linecap:square;stroke-linejoin:miter;stroke-miterlimit:4;stroke-dasharray:none;stroke-dashoffset:0;stroke-opacity:1;marker:none;marker-start:none;marker-mid:none;marker-end:none;paint-order:normal;color-rendering:auto;image-rendering:auto;shape-rendering:auto;text-rendering:auto;enable-background:accumulate" />
      <path
         sodipodi:nodetypes="cccc"
         inkscape:connector-curvature="0"
         id="path10241"
         d="m 9.5,216 277.5,0 0,69 36,0"
         style="color:#000000;clip-rule:nonzero;display:inline;overflow:visible;visibility:visible;opacity:1;isolation:auto;mix-blend-mode:normal;color-interpolation:sRGB;color-interpolation-filters:linearRGB;solid-color:#000000;solid-opacity:1;fill:none;fill-opacity:1;fill-rule:nonzero;stroke:#c4ae4d;stroke-width:10;stroke-linecap:square;stroke-linejoin:miter;stroke-miterlimit:4;stroke-dasharray:none;stroke-dashoffset:0;stroke-opacity:1;marker:none;marker-start:none;marker-mid:none;marker-end:none;paint-order:normal;color-rendering:auto;image-rendering:auto;shape-rendering:auto;text-rendering:auto;enable-background:accumulate" />
      <g
         style="fill:#418e64;fill-opacity:1"
         transform="translate(-5,4)"
         id="g10897">
        <path
           inkscape:connector-curvature="0"
           d="m 398,281 0,25.03125 c 0,2.32061 -0.2349,4.98821 -1.96875,7.3125 -1.73394,2.32425 -4.92602,3.7728 -9.28125,3.65625 l -18.28125,0 -4.64063,4.5 20.67188,0 13.5,13.5 0,-13.5 4.5,0 c 2.493,0 4.5,-2.007 4.5,-4.5 l 0,-31.5 c 0,-2.493 -2.007,-4.5 -4.5,-4.5 z"
           id="rect7465-4"
           sodipodi:nodetypes="cssccccccssssc"
           style="color:#000000;display:inline;overflow:visible;visibility:visible;fill:#418e64;fill-opacity:1;fill-rule:nonzero;stroke:none;stroke-width:1;marker:none;enable-background:accumulate" />
        <path
           inkscape:connector-curvature="0"
           d="m 348.5,272 c -2.493,0 -4.5,2.007 -4.5,4.5 l 0,31.5 c 0,2.493 2.007,4.5 4.5,4.5 l 4.5,0 0,13.5 13.5,-13.5 22.5,0 c 2.493,0 4.5,-2.007 4.5,-4.5 l 0,-31.5 c 0,-2.493 -2.007,-4.5 -4.5,-4.5 l -40.5,0 z m 13.5,9 4.5,0 0,4.5 4.5,0 0,-4.5 4.5,0 0,4.5 4.5,0 0,4.5 -4.5,0 0,4.5 4.5,0 0,4.5 -4.5,0 0,4.5 -4.5,0 0,-4.5 -4.5,0 0,4.5 -4.5,0 0,-4.5 -4.5,0 0,-4.5 4.5,0 0,-4.5 -4.5,0 0,-4.5 4.5,0 0,-4.5 z m 4.5,9 0,4.5 4.5,0 0,-4.5 -4.5,0 z"
           id="rect7465"
           style="color:#000000;display:inline;overflow:visible;visibility:visible;fill:#418e64;fill-opacity:1;fill-rule:nonzero;stroke:none;stroke-width:1;marker:none;enable-background:accumulate" />
      </g>
      <path
         sodipodi:nodetypes="cccc"
         inkscape:connector-curvature="0"
         id="path10901"
         d="m 421,283 31,0 0,-52 638.75,0"
         style="color:#000000;clip-rule:nonzero;display:inline;overflow:visible;visibility:visible;opacity:1;isolation:auto;mix-blend-mode:normal;color-interpolation:sRGB;color-interpolation-filters:linearRGB;solid-color:#000000;solid-opacity:1;fill:none;fill-opacity:1;fill-rule:nonzero;stroke:#a8c74f;stroke-width:10;stroke-linecap:square;stroke-linejoin:miter;stroke-miterlimit:4;stroke-dasharray:none;stroke-dashoffset:0;stroke-opacity:1;marker:none;marker-start:none;marker-mid:none;marker-end:none;paint-order:normal;color-rendering:auto;image-rendering:auto;shape-rendering:auto;text-rendering:auto;enable-background:accumulate" />
      <path
         sodipodi:nodetypes="cccc"
         inkscape:connector-curvature="0"
         id="path10903"
         d="m 421,301 57,0 0,-45 612.75,0"
         style="color:#000000;clip-rule:nonzero;display:inline;overflow:visible;visibility:visible;opacity:1;isolation:auto;mix-blend-mode:normal;color-interpolation:sRGB;color-interpolation-filters:linearRGB;solid-color:#000000;solid-opacity:1;fill:none;fill-opacity:1;fill-rule:nonzero;stroke:#c4ae4d;stroke-width:10;stroke-linecap:square;stroke-linejoin:miter;stroke-miterlimit:4;stroke-dasharray:none;stroke-dashoffset:0;stroke-opacity:1;marker:none;marker-start:none;marker-mid:none;marker-end:none;paint-order:normal;color-rendering:auto;image-rendering:auto;shape-rendering:auto;text-rendering:auto;enable-background:accumulate" />
      <path
         sodipodi:nodetypes="ccc"
         inkscape:connector-curvature="0"
         id="path10905"
         d="m 421,319 31,0 0,201.28572"
         style="color:#000000;clip-rule:nonzero;display:inline;overflow:visible;visibility:visible;opacity:1;isolation:auto;mix-blend-mode:normal;color-interpolation:sRGB;color-interpolation-filters:linearRGB;solid-color:#000000;solid-opacity:1;fill:none;fill-opacity:1;fill-rule:nonzero;stroke:#c2754a;stroke-width:10;stroke-linecap:square;stroke-linejoin:miter;stroke-miterlimit:4;stroke-dasharray:none;stroke-dashoffset:0;stroke-opacity:1;marker:none;marker-start:none;marker-mid:none;marker-end:none;paint-order:normal;color-rendering:auto;image-rendering:auto;shape-rendering:auto;text-rendering:auto;enable-background:accumulate" />
      <g
         id="g10963"
         transform="translate(-5,2)"
         style="fill:#a8c74f;fill-opacity:1">
        <path
           style="color:#000000;display:inline;overflow:visible;visibility:visible;fill:#a8c74f;fill-opacity:1;fill-rule:nonzero;stroke:none;stroke-width:1;marker:none;enable-background:accumulate"
           sodipodi:nodetypes="cssccccccssssc"
           id="path10965"
           d="m 398,281 0,25.03125 c 0,2.32061 -0.2349,4.98821 -1.96875,7.3125 -1.73394,2.32425 -4.92602,3.7728 -9.28125,3.65625 l -18.28125,0 -4.64063,4.5 20.67188,0 13.5,13.5 0,-13.5 4.5,0 c 2.493,0 4.5,-2.007 4.5,-4.5 l 0,-31.5 c 0,-2.493 -2.007,-4.5 -4.5,-4.5 z"
           inkscape:connector-curvature="0" />
        <path
           style="color:#000000;display:inline;overflow:visible;visibility:visible;fill:#a8c74f;fill-opacity:1;fill-rule:nonzero;stroke:none;stroke-width:1;marker:none;enable-background:accumulate"
           id="path10967"
           d="m 348.5,272 c -2.493,0 -4.5,2.007 -4.5,4.5 l 0,31.5 c 0,2.493 2.007,4.5 4.5,4.5 l 4.5,0 0,13.5 13.5,-13.5 22.5,0 c 2.493,0 4.5,-2.007 4.5,-4.5 l 0,-31.5 c 0,-2.493 -2.007,-4.5 -4.5,-4.5 l -40.5,0 z m 13.5,9 4.5,0 0,4.5 4.5,0 0,-4.5 4.5,0 0,4.5 4.5,0 0,4.5 -4.5,0 0,4.5 4.5,0 0,4.5 -4.5,0 0,4.5 -4.5,0 0,-4.5 -4.5,0 0,4.5 -4.5,0 0,-4.5 -4.5,0 0,-4.5 4.5,0 0,-4.5 -4.5,0 0,-4.5 4.5,0 0,-4.5 z m 4.5,9 0,4.5 4.5,0 0,-4.5 -4.5,0 z"
           inkscape:connector-curvature="0" />
      </g>
    </g>
  </g>
</svg>
