<?xml version="1.0" encoding="UTF-8" standalone="no"?>
<!-- Created with Inkscape (http://www.inkscape.org/) -->

<svg
   version="1.0"
   width="210"
   height="155"
   viewBox="0 0 31.898734 23.544304"
   id="svg11300"
   sodipodi:docname="skypeforlinux.svg"
   inkscape:version="1.1.2 (0a00cf5339, 2022-02-04)"
   xmlns:inkscape="http://www.inkscape.org/namespaces/inkscape"
   xmlns:sodipodi="http://sodipodi.sourceforge.net/DTD/sodipodi-0.dtd"
   xmlns:xlink="http://www.w3.org/1999/xlink"
   xmlns="http://www.w3.org/2000/svg"
   xmlns:svg="http://www.w3.org/2000/svg">
  <sodipodi:namedview
     id="namedview80"
     pagecolor="#ffffff"
     bordercolor="#000000"
     borderopacity="0.25"
     inkscape:showpageshadow="2"
     inkscape:pageopacity="0.0"
     inkscape:pagecheckerboard="true"
     inkscape:deskcolor="#d1d1d1"
     showgrid="false"
     inkscape:zoom="2.6677215"
     inkscape:cx="152.75208"
     inkscape:cy="157.81258"
     inkscape:window-width="2560"
     inkscape:window-height="1352"
     inkscape:window-x="2560"
     inkscape:window-y="0"
     inkscape:window-maximized="1"
     inkscape:current-layer="svg11300"
     inkscape:pageshadow="2" />
  <defs
     id="defs3">
    <linearGradient
       id="linearGradient8542">
      <stop
         style="stop-color:#5b676b;stop-opacity:1"
         offset="0"
         id="stop8544" />
      <stop
         style="stop-color:#141718;stop-opacity:1"
         offset="1"
         id="stop8546" />
    </linearGradient>
    <linearGradient
       id="linearGradient8534">
      <stop
         style="stop-color:black;stop-opacity:1"
         offset="0"
         id="stop8536" />
      <stop
         style="stop-color:black;stop-opacity:0"
         offset="1"
         id="stop8538" />
    </linearGradient>
    <linearGradient
       id="linearGradient8524">
      <stop
         style="stop-color:white;stop-opacity:1"
         offset="0"
         id="stop8526" />
      <stop
         style="stop-color:white;stop-opacity:0"
         offset="1"
         id="stop8528" />
    </linearGradient>
    <linearGradient
       id="linearGradient2446">
      <stop
         style="stop-color:white;stop-opacity:1"
         offset="0"
         id="stop2448" />
      <stop
         style="stop-color:white;stop-opacity:0"
         offset="1"
         id="stop2450" />
    </linearGradient>
    <linearGradient
       x1="13.236155"
       y1="37.752247"
       x2="7.7521091"
       y2="42.282146"
       id="linearGradient2452"
       xlink:href="#linearGradient2446"
       gradientUnits="userSpaceOnUse"
       gradientTransform="matrix(0.755165,0.395143,-0.395143,0.755165,-25.91245,6.532586)" />
    <linearGradient
       id="linearGradient6963">
      <stop
         style="stop-color:#696969;stop-opacity:1"
         offset="0"
         id="stop6965" />
      <stop
         style="stop-color:black;stop-opacity:1"
         offset="1"
         id="stop6967" />
    </linearGradient>
    <radialGradient
       cx="15.415101"
       cy="35.356506"
       r="7.5791559"
       fx="15.415101"
       fy="35.356506"
       id="radialGradient6969"
       xlink:href="#linearGradient6963"
       gradientUnits="userSpaceOnUse"
       gradientTransform="matrix(1.572694,0,0,1.532639,-55.36682,-21.35823)" />
    <linearGradient
       id="linearGradient6939">
      <stop
         style="stop-color:#bdbdbd;stop-opacity:1"
         offset="0"
         id="stop6941" />
      <stop
         style="stop-color:#e2e2e2;stop-opacity:1"
         offset="0.33333334"
         id="stop6947" />
      <stop
         style="stop-color:#a3a3a3;stop-opacity:1"
         offset="0.66666669"
         id="stop6949" />
      <stop
         style="stop-color:#ddd;stop-opacity:1"
         offset="1"
         id="stop6943" />
    </linearGradient>
    <linearGradient
       x1="19.394735"
       y1="30.001331"
       x2="23.109331"
       y2="33.438831"
       id="linearGradient6945"
       xlink:href="#linearGradient6939"
       gradientUnits="userSpaceOnUse"
       gradientTransform="translate(-46.40695,-1.802856)" />
    <linearGradient
       id="linearGradient6951">
      <stop
         style="stop-color:#6e3d09;stop-opacity:1"
         offset="0"
         id="stop6953" />
      <stop
         style="stop-color:#ea8113;stop-opacity:1"
         offset="0.24242425"
         id="stop6959" />
      <stop
         style="stop-color:#5c3307;stop-opacity:1"
         offset="0.62121212"
         id="stop6961" />
      <stop
         style="stop-color:#e07c12;stop-opacity:1"
         offset="1"
         id="stop6955" />
    </linearGradient>
    <linearGradient
       x1="37.017639"
       y1="19.239889"
       x2="27.753893"
       y2="11.182488"
       id="linearGradient6957"
       xlink:href="#linearGradient6951"
       gradientUnits="userSpaceOnUse"
       gradientTransform="translate(-49.30496,1.877723)" />
    <linearGradient
       id="linearGradient6500">
      <stop
         style="stop-color:#857c63;stop-opacity:1"
         offset="0"
         id="stop6502" />
      <stop
         style="stop-color:#221f19;stop-opacity:1"
         offset="1"
         id="stop6504" />
    </linearGradient>
    <linearGradient
       id="linearGradient6492">
      <stop
         style="stop-color:black;stop-opacity:1"
         offset="0"
         id="stop6494" />
      <stop
         style="stop-color:black;stop-opacity:0"
         offset="1"
         id="stop6496" />
    </linearGradient>
    <linearGradient
       id="linearGradient6482">
      <stop
         style="stop-color:black;stop-opacity:1"
         offset="0"
         id="stop6484" />
      <stop
         style="stop-color:black;stop-opacity:0"
         offset="1"
         id="stop6486" />
    </linearGradient>
    <linearGradient
       id="linearGradient6468">
      <stop
         style="stop-color:white;stop-opacity:1"
         offset="0"
         id="stop6470" />
      <stop
         style="stop-color:#b9b9b0;stop-opacity:1"
         offset="1"
         id="stop6472" />
    </linearGradient>
    <linearGradient
       id="linearGradient6452">
      <stop
         style="stop-color:white;stop-opacity:1"
         offset="0"
         id="stop6454" />
      <stop
         style="stop-color:white;stop-opacity:0"
         offset="1"
         id="stop6456" />
    </linearGradient>
    <linearGradient
       x1="6.3051529"
       y1="23.362427"
       x2="5.9846287"
       y2="31.57"
       id="linearGradient6458"
       xlink:href="#linearGradient6452"
       gradientUnits="userSpaceOnUse" />
    <radialGradient
       cx="69.473244"
       cy="19.597878"
       r="3.5153139"
       fx="69.473244"
       fy="19.597878"
       id="radialGradient6474"
       xlink:href="#linearGradient6468"
       gradientUnits="userSpaceOnUse"
       gradientTransform="matrix(1.318488,0,0,1.318488,-22.1264,-6.241691)" />
    <radialGradient
       cx="23"
       cy="33.9375"
       r="18.25"
       fx="23"
       fy="33.9375"
       id="radialGradient6498"
       xlink:href="#linearGradient6492"
       gradientUnits="userSpaceOnUse"
       gradientTransform="matrix(1,0,0,0.284247,0,24.29088)" />
    <linearGradient
       x1="14.96875"
       y1="19.110678"
       x2="39.524544"
       y2="46.98568"
       id="linearGradient8530"
       xlink:href="#linearGradient8524"
       gradientUnits="userSpaceOnUse" />
    <radialGradient
       cx="6.0242186"
       cy="25.271027"
       r="4.8310289"
       fx="6.0242186"
       fy="25.271027"
       id="radialGradient8548"
       xlink:href="#linearGradient8542"
       gradientUnits="userSpaceOnUse"
       gradientTransform="matrix(0.916159,0.09318684,-0.108765,1.069309,3.253668,-3.029272)" />
    <linearGradient
       x1="26.162951"
       y1="30.543303"
       x2="24.328892"
       y2="30.985245"
       id="linearGradient4330"
       xlink:href="#linearGradient8534"
       gradientUnits="userSpaceOnUse" />
    <linearGradient
       x1="32.350136"
       y1="28.083355"
       x2="21.213203"
       y2="30.293064"
       id="linearGradient4351"
       xlink:href="#linearGradient6482"
       gradientUnits="userSpaceOnUse"
       gradientTransform="translate(-3.836549,0.345971)" />
    <radialGradient
       cx="18.557627"
       cy="22.300018"
       r="19.2292"
       fx="18.557627"
       fy="22.300018"
       id="radialGradient4354"
       xlink:href="#linearGradient6500"
       gradientUnits="userSpaceOnUse"
       gradientTransform="matrix(1.77275,0,0,1.29668,-16.3404,-6.615959)" />
    <radialGradient
       cx="69.473244"
       cy="19.597878"
       r="3.5153139"
       fx="69.473244"
       fy="19.597878"
       id="radialGradient4363"
       xlink:href="#linearGradient6468"
       gradientUnits="userSpaceOnUse"
       gradientTransform="matrix(1.318488,0,0,1.318488,-22.1264,-6.241691)" />
  </defs>
  <path
     fill="#fffffe"
     d="m 4.556962,0.37974682 h 22.78481 V 23.164557 H 4.556962 Z"
     id="path4"
     style="fill:none;stroke-width:0.0890033" />
  <path
     fill="#00aff0"
     d="m 7.9390972,2.3367118 c 1.8094346,-1.305677 4.3682758,-1.41782102 6.2951938,-0.300831 2.172568,-0.376483 4.469739,-0.01869 6.408228,1.037777 2.163667,1.162381 3.862737,3.1587221 4.653976,5.4852648 0.543809,1.5744664 0.670193,3.2859964 0.387163,4.9263254 0.696005,1.223793 0.937204,2.696796 0.655064,4.077234 -0.298161,1.522845 -1.237145,2.903284 -2.5357,3.751484 -1.797864,1.208663 -4.267702,1.277195 -6.140329,0.193137 -2.085344,0.358683 -4.284612,0.04806 -6.171479,-0.914953 C 9.2981758,19.490291 7.5492632,17.541122 6.6939432,15.24039 6.0744812,13.596502 5.9187252,11.787958 6.2133262,10.057736 5.5021912,8.8125816 5.2716722,7.3075381 5.5751732,5.9066283 5.8760042,4.4754578 6.7420052,3.1751208 7.9390972,2.3367118 Z"
     id="path6"
     style="stroke-width:0.0890033" />
  <path
     fill="#fffffe"
     d="m 8.9177379,3.4927102 c 1.0991891,-0.737837 2.5410401,-0.922073 3.7933151,-0.495748 0.445016,0.141515 0.84553,0.386274 1.247824,0.616792 1.570016,-0.342662 3.236155,-0.29282 4.755439,0.250989 2.418216,0.83574 4.392306,2.8409809 5.186215,5.2734374 0.503758,1.4827924 0.537579,3.0973104 0.205597,4.6219344 0.391614,0.641713 0.728936,1.335938 0.808149,2.092464 0.194026,1.424941 -0.386274,2.918414 -1.478343,3.851167 -1.066258,0.939874 -2.606013,1.297666 -3.978442,0.922963 -0.547369,-0.132615 -1.037776,-0.416535 -1.520173,-0.696895 -1.653679,0.362243 -3.414162,0.28214 -4.995748,-0.339992 C 10.607018,18.700681 8.726381,16.71413 7.9725238,14.332405 7.4892368,12.868303 7.4652058,11.282267 7.7918478,9.7816735 7.2871998,8.9948855 6.9302968,8.0888333 6.9480978,7.1409496 6.9347478,5.6955382 7.7072948,4.2794982 8.9177379,3.4927102 Z"
     id="path8"
     style="fill:#00aff0;fill-opacity:1;stroke-width:0.0890033" />
  <path
     fill="#00aff0"
     d="m 14.646767,5.7842669 c 1.42316,-0.2153873 2.922864,0.00267 4.192939,0.6915546 0.55538,0.3079509 1.092959,0.7244857 1.351068,1.322587 0.168216,0.393394 0.186907,0.9069423 -0.123714,1.236254 -0.336432,0.3444422 -0.885582,0.450356 -1.336828,0.3052808 C 18.207783,9.1209955 17.947894,8.5736261 17.504658,8.2478745 16.947499,7.7886182 16.197202,7.6649038 15.494967,7.6773642 c -0.513548,0.022251 -1.063588,0.1388449 -1.438291,0.5162184 -0.346222,0.3693631 -0.474387,1.0021756 -0.137065,1.4178204 0.318631,0.3675831 0.810819,0.504648 1.262065,0.630142 0.86066,0.215388 1.731112,0.388944 2.595332,0.592761 0.898932,0.205598 1.806764,0.598992 2.400415,1.331488 1.023537,1.326147 0.793019,3.429292 -0.479726,4.51513 -1.018197,0.901602 -2.434237,1.150811 -3.753264,1.158821 -1.40803,-0.02047 -2.913074,-0.30884 -3.995352,-1.271855 -0.542919,-0.489517 -0.999506,-1.228243 -0.83574,-1.98388 0.178897,-0.751187 1.210443,-1.035997 1.795194,-0.574071 0.446796,0.358683 0.688885,0.904272 1.11966,1.278976 0.515328,0.472607 1.233584,0.660403 1.920688,0.643493 0.673754,0.0178 1.38934,-0.188687 1.851266,-0.701345 0.314181,-0.346223 0.480617,-0.873121 0.2768,-1.316357 -0.167326,-0.416535 -0.597212,-0.643493 -1.008406,-0.755637 -0.758307,-0.198477 -1.521954,-0.379153 -2.280261,-0.579411 -0.83307,-0.203817 -1.69907,-0.389833 -2.415546,-0.886471 -0.55894,-0.371143 -0.982595,-0.950554 -1.11877,-1.610957 -0.228738,-1.0359971 -0.06497,-2.2313096 0.687995,-3.0225478 0.688884,-0.7663172 1.710641,-1.1223298 2.704806,-1.2754153 z"
     id="path10"
     style="fill:#ffffff;stroke-width:0.0890033" />
</svg>
