<?xml version="1.0" encoding="UTF-8" standalone="no"?>
<svg
   width="190"
   height="155"
   version="1.1"
   id="svg20"
   sodipodi:docname="steam.svg"
   inkscape:version="1.2.2 (b0a8486541, 2022-12-01)"
   xmlns:inkscape="http://www.inkscape.org/namespaces/inkscape"
   xmlns:sodipodi="http://sodipodi.sourceforge.net/DTD/sodipodi-0.dtd"
   xmlns="http://www.w3.org/2000/svg"
   xmlns:svg="http://www.w3.org/2000/svg">
  <defs
     id="defs24" />
  <sodipodi:namedview
     id="namedview22"
     pagecolor="#ffffff"
     bordercolor="#000000"
     borderopacity="0.25"
     inkscape:showpageshadow="2"
     inkscape:pageopacity="0.0"
     inkscape:pagecheckerboard="0"
     inkscape:deskcolor="#d1d1d1"
     showgrid="false"
     inkscape:zoom="3.8469026"
     inkscape:cx="58.488614"
     inkscape:cy="75.25535"
     inkscape:window-width="1920"
     inkscape:window-height="1052"
     inkscape:window-x="2560"
     inkscape:window-y="0"
     inkscape:window-maximized="1"
     inkscape:current-layer="svg20" />
  <g
     id="g309"
     transform="matrix(3.9589817,0,0,3.9589817,-35.302887,-39.459064)"
     style="fill:#ffffff">
    <path
       style="fill:#ffffff"
       d="m 36.013233,19.642714 4.2,9.8 9.9,1.4 -15.5,9.8 v -7 h -7 z"
       id="path8" />
    <path
       style="fill:#ffffff"
       d="m 45.413233,11.042714 a 11,11 0 0 0 -11,11 11,11 0 0 0 11,11 11,11 0 0 0 11,-11 11,11 0 0 0 -11,-11 z m 0,4 a 7,7 0 0 1 7,7 7,7 0 0 1 -7,7 7,7 0 0 1 -7,-7 7,7 0 0 1 7,-7 z"
       id="path10" />
    <path
       style="fill:#ffffff"
       d="m 28.913233,31.042714 a 8.5,8.5 0 0 0 -8.5,8.5 8.5,8.5 0 0 0 8.5,8.5 8.5,8.5 0 0 0 8.5,-8.5 8.5,8.5 0 0 0 -8.5,-8.5 z m 0,3 a 5.5,5.5 0 0 1 5.5,5.5 5.5,5.5 0 0 1 -5.5,5.5 5.5,5.5 0 0 1 -5.5,-5.5 5.5,5.5 0 0 1 5.5,-5.5 z"
       id="path12" />
    <circle
       style="fill:#ffffff"
       cx="45.413235"
       cy="22.042713"
       r="5"
       id="circle14" />
    <path
       style="fill:#ffffff"
       d="m 9.4601081,27.120839 a 28,28 0 0 0 -0.046875,0.921875 28,28 0 0 0 0.9374999,7.123047 l 17.148438,7.578125 a 3.50035,3.50035 0 1 0 2.828124,-6.402344 z"
       id="path16" />
  </g>
</svg>
