<?xml version="1.0" encoding="UTF-8" standalone="no"?>
<!-- Created with Inkscape (http://www.inkscape.org/) -->

<svg
   width="64"
   height="64"
   viewBox="0 0 16.933333 16.933334"
   version="1.1"
   id="svg827"
   inkscape:version="1.1.2 (0a00cf5339, 2022-02-04)"
   sodipodi:docname="verified.svg"
   xmlns:inkscape="http://www.inkscape.org/namespaces/inkscape"
   xmlns:sodipodi="http://sodipodi.sourceforge.net/DTD/sodipodi-0.dtd"
   xmlns="http://www.w3.org/2000/svg"
   xmlns:svg="http://www.w3.org/2000/svg">
  <sodipodi:namedview
     id="namedview829"
     pagecolor="#ffffff"
     bordercolor="#666666"
     borderopacity="1.0"
     inkscape:pageshadow="2"
     inkscape:pageopacity="0.0"
     inkscape:pagecheckerboard="0"
     inkscape:document-units="mm"
     showgrid="false"
     inkscape:zoom="5.7228395"
     inkscape:cx="23.764427"
     inkscape:cy="52.159422"
     inkscape:window-width="1920"
     inkscape:window-height="981"
     inkscape:window-x="1920"
     inkscape:window-y="27"
     inkscape:window-maximized="1"
     inkscape:current-layer="layer1"
     units="px" />
  <defs
     id="defs824" />
  <g
     inkscape:label="Layer 1"
     inkscape:groupmode="layer"
     id="layer1">
    <path
       fill-rule="evenodd"
       d="m 14.87014,11.118667 a 3,3 0 0 0 0,-5.3040005 3,3 0 0 0 -3.75,-3.751 3,3 0 0 0 -5.3050005,0 3,3 0 0 0 -3.751,3.75 3,3 0 0 0 0,5.3050005 3,3 0 0 0 3.75,3.751 3,3 0 0 0 5.3050005,0 3,3 0 0 0 3.751,-3.75 z m -2.546,-4.4600005 a 0.75058061,0.75058061 0 0 0 -1.214,-0.883 l -3.4830005,4.7900005 -1.88,-1.8800005 a 0.75,0.75 0 1 0 -1.06,1.061 l 2.5,2.5000005 a 0.75,0.75 0 0 0 1.137,-0.089 L 12.32414,6.6576665 Z"
       clip-rule="evenodd"
       id="path1231"
       style="fill:#4a90d9;fill-opacity:1" />
  </g>
</svg>
