<?xml version="1.0" encoding="UTF-8" standalone="no"?>
<svg
   width="16"
   height="16"
   version="1.1"
   id="svg10"
   sodipodi:docname="mintinstall-publishing-symbolic.svg"
   inkscape:version="1.1.2 (0a00cf5339, 2022-02-04)"
   xmlns:inkscape="http://www.inkscape.org/namespaces/inkscape"
   xmlns:sodipodi="http://sodipodi.sourceforge.net/DTD/sodipodi-0.dtd"
   xmlns="http://www.w3.org/2000/svg"
   xmlns:svg="http://www.w3.org/2000/svg">
  <defs
     id="defs14" />
  <sodipodi:namedview
     id="namedview12"
     pagecolor="#ffffff"
     bordercolor="#666666"
     borderopacity="1.0"
     inkscape:pageshadow="2"
     inkscape:pageopacity="0.0"
     inkscape:pagecheckerboard="0"
     showgrid="false"
     inkscape:zoom="38.493125"
     inkscape:cx="-3.2343438"
     inkscape:cy="12.339866"
     inkscape:window-width="2560"
     inkscape:window-height="1352"
     inkscape:window-x="2560"
     inkscape:window-y="0"
     inkscape:window-maximized="1"
     inkscape:current-layer="svg10" />
  <path
     clip-path="none"
     style="color:#bebebe;display:inline;overflow:visible;visibility:visible;fill:#474747;fill-opacity:1;stroke:none;stroke-width:0.163043;marker:none;enable-background:accumulate"
     d="m 7.9999995,0.5 c -0.361304,0 -0.652174,0.29087 -0.652174,0.652174 V 1.92663 c -0.755478,0.270985 -1.304347,0.985553 -1.304347,1.83424 0,0.566497 0.247043,1.069337 0.631826,1.42663 l -1.182131,5.095109 h -1.732304 c -0.180652,0 -0.326087,0.145434 -0.326087,0.326087 0,0.180652 0.145435,0.326087 0.326087,0.326087 h 1.589674 l -0.611413,2.608695 c -0.326087,0.978261 0.326087,0.978261 0.326087,0.978261 L 5.3913045,15.5 6.5733695,10.934783 h 0.774456 c 0,0.361304 0.29087,0.652174 0.652174,0.652174 0.361305,0 0.652174,-0.29087 0.652174,-0.652174 h 0.774457 L 10.608696,15.5 10.934783,14.521739 c 0,0 0.652174,0 0.326087,-0.978261 l -0.611413,-2.608695 h 1.589674 c 0.180652,0 0.326087,-0.145435 0.326087,-0.326087 0,-0.180653 -0.145435,-0.326087 -0.326087,-0.326087 H 10.506826 L 9.3246955,5.1875 c 0.384783,-0.357293 0.631826,-0.860133 0.631826,-1.42663 0,-0.848687 -0.548869,-1.563255 -1.304348,-1.83424 V 1.152174 C 8.6521735,0.79087 8.3613045,0.5 7.9999995,0.5 Z m 0,1.956522 c 0.720392,0 1.304348,0.583976 1.304348,1.304348 0,0.720371 -0.583956,1.304347 -1.304348,1.304347 -0.720391,0 -1.304347,-0.583976 -1.304347,-1.304347 0,-0.720372 0.583956,-1.304348 1.304347,-1.304348 z m -0.08152,3.260869 c 0.02804,0.0013 0.05348,0 0.08152,0 0.02804,0 0.05348,0.0013 0.08152,0 l 1.182065,4.565218 h -0.611413 c 0,-0.361305 -0.290869,-0.652174 -0.652174,-0.652174 -0.361304,0 -0.652174,0.290869 -0.652174,0.652174 h -0.611413 z"
     id="path3869"
     inkscape:connector-curvature="0" />
</svg>
