<?xml version="1.0" encoding="UTF-8"?>
<svg width="16px" height="16px" viewBox="0 0 16 16" xmlns="http://www.w3.org/2000/svg">
 <path d="m8 0c-0.25391 0-0.50391 0.011719-0.75 0.035156l-0.46484 2.3945c-0.38281 0.082031-0.75781 0.19922-1.1055 0.35547l-1.75-1.6758c-0.44531 0.26172-0.83203 0.58594-1.2148 0.92578l1.0352 2.1797c-0.25391 0.28516-0.48438 0.59766-0.67578 0.92969l-2.3945-0.32422c-0.20313 0.46875-0.35156 0.95703-0.46484 1.4648l2.1094 1.1406c-0.019531 0.19531-0.039063 0.37891-0.039063 0.57422s0.019532 0.37891 0.039063 0.57031l-2.1094 1.1445c0.11328 0.50781 0.26172 0.99609 0.46484 1.4609l2.3945-0.32031c0.19141 0.33203 0.42188 0.64453 0.67578 0.92969l-1.0352 2.1758c0.38281 0.34375 0.76953 0.66797 1.2148 0.93359l1.75-1.6836c0.34766 0.15625 0.72266 0.27734 1.1055 0.35937l0.46484 2.3906c0.24609 0.023437 0.49609 0.039062 0.75 0.039062s0.50391-0.015625 0.75-0.035156l0.46484-2.3945c0.38281-0.082031 0.75781-0.20312 1.1094-0.35547l1.75 1.6797c0.44141-0.26562 0.82812-0.58984 1.2109-0.92969l-1.0352-2.1797c0.25391-0.28516 0.48438-0.59766 0.67578-0.92969l2.3984 0.32031c0.19922-0.46484 0.34766-0.95312 0.46094-1.4609l-2.1094-1.1445c0.019531-0.19141 0.039063-0.375 0.039063-0.57031s-0.019532-0.37891-0.039063-0.57422l2.1094-1.1406c-0.11328-0.50781-0.26172-0.99609-0.46094-1.4648l-2.3984 0.32422c-0.19141-0.33203-0.42188-0.64453-0.67578-0.92969l1.0352-2.1797c-0.38281-0.33984-0.76953-0.66406-1.2109-0.92969l-1.75 1.6797c-0.35156-0.15625-0.72656-0.27344-1.1094-0.35938l-0.46484-2.3906c-0.24609-0.023437-0.49609-0.035156-0.75-0.035156zm0 5c1.6562 0 3 1.3438 3 3s-1.3438 3-3 3-3-1.3438-3-3 1.3438-3 3-3z" fill="#2e3436"/>
</svg>
