<?xml version="1.0" encoding="UTF-8"?>
<svg width="16px" height="16px" viewBox="0 0 16 16" xmlns="http://www.w3.org/2000/svg">
 <g fill="#2e3436">
  <path d="m2 1h4c0.55078 0 1 0.44922 1 1v4c0 0.55078-0.44922 1-1 1h-4c-0.55078 0-1-0.44922-1-1v-4c0-0.55078 0.44922-1 1-1z"/>
  <path d="m10 1h4c0.55078 0 1 0.44922 1 1v4c0 0.55078-0.44922 1-1 1h-4c-0.55078 0-1-0.44922-1-1v-4c0-0.55078 0.44922-1 1-1z"/>
  <path d="m2 9h4c0.55078 0 1 0.44922 1 1v4c0 0.55078-0.44922 1-1 1h-4c-0.55078 0-1-0.44922-1-1v-4c0-0.55078 0.44922-1 1-1z"/>
  <path d="m10 9h4c0.55078 0 1 0.44922 1 1v4c0 0.55078-0.44922 1-1 1h-4c-0.55078 0-1-0.44922-1-1v-4c0-0.55078 0.44922-1 1-1z"/>
 </g>
</svg>
