<?xml version="1.0" encoding="UTF-8"?>
<svg width="16" height="16" xmlns="http://www.w3.org/2000/svg">
 <path d="M3 5.01v2h1.92c-.055 0 .083.162.083.084v.922H4c-1.716 0-3.032 1.128-3.057 2.487-.012.679.306 1.36.861 1.82.556.46 1.318.7 2.196.7h3.002v-5.93c0-1.17-.886-2.084-2.082-2.084zm1 5.006h1.003v1.006H4c-.52 0-.794-.136-.92-.24-.126-.104-.138-.172-.137-.244.003-.144.087-.522 1.057-.522zM7.997 4v9.022H11c.938 0 1.767-.37 2.297-.957.53-.586.767-1.337.757-2.066a3.084 3.084 0 00-.79-2.045C12.737 7.377 11.921 7 11 7H9.997V4zm2 5H11c.422 0 .625.126.787.303.161.177.264.445.267.721.004.276-.088.531-.24.7-.151.167-.355.298-.814.298H9.997z" fill="#474747" font-family="sans-serif" font-weight="400" overflow="visible" style="font-feature-settings:normal;font-variant-alternates:normal;font-variant-caps:normal;font-variant-ligatures:normal;font-variant-numeric:normal;font-variant-position:normal;isolation:auto;mix-blend-mode:normal;shape-padding:0;text-decoration-color:#000;text-decoration-line:none;text-decoration-style:solid;text-indent:0;text-orientation:mixed;text-transform:none"/>
</svg>
