<?xml version="1.0" encoding="UTF-8" standalone="no"?>
<!-- Created with Inkscape (http://www.inkscape.org/) -->

<svg
   id="svg7384"
   version="1.1"
   inkscape:version="1.1.2 (0a00cf5339, 2022-02-04)"
   height="16"
   sodipodi:docname="mintinstall-maths-symbolic.svg"
   width="16.000002"
   xmlns:inkscape="http://www.inkscape.org/namespaces/inkscape"
   xmlns:sodipodi="http://sodipodi.sourceforge.net/DTD/sodipodi-0.dtd"
   xmlns="http://www.w3.org/2000/svg"
   xmlns:svg="http://www.w3.org/2000/svg"
   xmlns:rdf="http://www.w3.org/1999/02/22-rdf-syntax-ns#"
   xmlns:cc="http://creativecommons.org/ns#"
   xmlns:dc="http://purl.org/dc/elements/1.1/">
  <metadata
     id="metadata90">
    <rdf:RDF>
      <cc:Work
         rdf:about="">
        <dc:format>image/svg+xml</dc:format>
        <dc:type
           rdf:resource="http://purl.org/dc/dcmitype/StillImage" />
        <dc:title>Gnome Symbolic Icon Theme</dc:title>
      </cc:Work>
    </rdf:RDF>
  </metadata>
  <sodipodi:namedview
     inkscape:cy="5.625"
     inkscape:current-layer="layer13"
     inkscape:window-width="2560"
     pagecolor="#555753"
     showborder="true"
     showguides="true"
     inkscape:snap-nodes="true"
     objecttolerance="10"
     showgrid="true"
     inkscape:object-nodes="true"
     inkscape:pageshadow="2"
     inkscape:guide-bbox="true"
     inkscape:window-x="2560"
     inkscape:snap-bbox="true"
     bordercolor="#666666"
     id="namedview88"
     inkscape:window-maximized="1"
     inkscape:snap-global="true"
     inkscape:window-y="0"
     gridtolerance="10"
     inkscape:zoom="16"
     inkscape:window-height="1352"
     borderopacity="1"
     guidetolerance="10"
     inkscape:cx="0.46875"
     inkscape:bbox-paths="false"
     inkscape:snap-grids="true"
     inkscape:pageopacity="1"
     inkscape:snap-to-guides="true"
     inkscape:pagecheckerboard="0">
    <inkscape:grid
       visible="true"
       spacingx="1"
       type="xygrid"
       spacingy="1"
       id="grid4866"
       empspacing="2"
       enabled="true"
       snapvisiblegridlinesonly="true"
       originx="0"
       originy="0" />
  </sodipodi:namedview>
  <title
     id="title9167">Gnome Symbolic Icon Theme</title>
  <defs
     id="defs7386" />
  <g
     transform="translate(-482,-176)"
     inkscape:groupmode="layer"
     id="layer9"
     inkscape:label="status"
     style="display:inline" />
  <g
     transform="translate(-482,-176)"
     inkscape:groupmode="layer"
     id="layer10"
     inkscape:label="devices" />
  <g
     transform="translate(-482,-176)"
     inkscape:groupmode="layer"
     id="layer11"
     inkscape:label="apps" />
  <g
     transform="translate(-482,-176)"
     inkscape:groupmode="layer"
     id="layer12"
     inkscape:label="actions" />
  <g
     transform="translate(-482,-176)"
     inkscape:groupmode="layer"
     id="layer13"
     inkscape:label="places">
    <g
       transform="translate(254.0002,-820)"
       id="g40072"
       inkscape:label="folder-remote" />
    <g
       style="font-style:normal;font-variant:normal;font-weight:normal;font-stretch:normal;font-size:321.285px;line-height:125%;font-family:'Source Sans Pro';-inkscape-font-specification:'Source Sans Pro';letter-spacing:0px;word-spacing:0px;display:inline;fill:#bebebf;fill-opacity:1;stroke:none;enable-background:new"
       id="text3065"
       transform="matrix(0.10714286,0,0,0.10714286,474.52565,167.04756)">
      <path
         d="m 214,91 v 20.7935 h -33.0417 l -2.84843,43.29603 c -0.56978,7.50091 -0.85463,14.0048 -0.85452,19.51169 -1.1e-4,13.19774 1.51905,21.26826 4.55748,24.21161 3.13315,2.84844 6.88357,4.27264 11.25127,4.27263 9.11482,10e-6 14.52682,-5.74429 16.23601,-17.23296 h 5.12716 c -3.1334,26.3954 -13.67255,39.59308 -31.6175,39.59308 -8.35547,0 -15.09673,-2.56358 -20.2238,-7.69074 -5.0323,-5.12715 -7.5484,-12.72295 -7.54832,-22.78738 -8e-5,-6.6463 0.99686,-20.6985 2.99085,-42.15667 l 3.84537,-41.01729 h -30.19329 c -1.99395,34.56094 -4.41512,59.81693 -7.26349,75.76806 -2.75351,15.95118 -5.8393,26.25297 -9.25736,30.90538 -3.32321,4.65243 -7.88068,6.97864 -13.67243,6.97864 -4.367613,0 -8.070559,-1.28179 -11.108858,-3.84537 -2.943385,-2.56358 -4.415072,-5.93421 -4.415054,-10.1119 -1.8e-5,-3.98778 2.563567,-9.44725 7.690738,-16.37844 7.500824,-10.06439 13.102724,-20.50859 16.805704,-31.33265 3.7029,-10.91889 6.50385,-28.24678 8.40285,-51.98372 h -9.68464 c -7.78572,1.1e-4 -13.767407,1.75664 -17.945067,5.26958 -4.082753,3.4182 -7.975603,8.35547 -11.678539,14.8118 h -5.127162 c 2.753471,-10.15927 6.313993,-18.51464 10.681585,-25.06612 4.367573,-6.55126 8.830098,-10.823896 13.387593,-12.817914 4.65239,-1.993767 12.86534,-2.990715 24.63887,-2.990845 h 90.86469"
         style="font-family:'Times New Roman';-inkscape-font-specification:'Times New Roman';fill:#bebebf;fill-opacity:1;stroke:none"
         id="path3070"
         inkscape:connector-curvature="0" />
    </g>
  </g>
  <g
     transform="translate(-482,-176)"
     inkscape:groupmode="layer"
     id="layer14"
     inkscape:label="mimetypes" />
  <g
     transform="translate(-482,-176)"
     inkscape:groupmode="layer"
     id="layer15"
     inkscape:label="emblems"
     style="display:inline" />
</svg>
