<?xml version="1.0" encoding="UTF-8" standalone="no"?>
<!-- Created with Inkscape (http://www.inkscape.org/) -->

<svg
   id="svg7384"
   version="1.1"
   inkscape:version="1.1.2 (0a00cf5339, 2022-02-04)"
   height="16"
   sodipodi:docname="mintinstall-board-symbolic.svg"
   width="16.000002"
   xmlns:inkscape="http://www.inkscape.org/namespaces/inkscape"
   xmlns:sodipodi="http://sodipodi.sourceforge.net/DTD/sodipodi-0.dtd"
   xmlns="http://www.w3.org/2000/svg"
   xmlns:svg="http://www.w3.org/2000/svg"
   xmlns:rdf="http://www.w3.org/1999/02/22-rdf-syntax-ns#"
   xmlns:cc="http://creativecommons.org/ns#"
   xmlns:dc="http://purl.org/dc/elements/1.1/">
  <metadata
     id="metadata90">
    <rdf:RDF>
      <cc:Work
         rdf:about="">
        <dc:format>image/svg+xml</dc:format>
        <dc:type
           rdf:resource="http://purl.org/dc/dcmitype/StillImage" />
        <dc:title>Gnome Symbolic Icon Theme</dc:title>
      </cc:Work>
    </rdf:RDF>
  </metadata>
  <sodipodi:namedview
     inkscape:cy="6.2313785"
     inkscape:current-layer="layer13"
     inkscape:window-width="2560"
     pagecolor="#555753"
     showborder="true"
     showguides="true"
     inkscape:snap-nodes="true"
     objecttolerance="10"
     showgrid="true"
     inkscape:object-nodes="true"
     inkscape:pageshadow="2"
     inkscape:guide-bbox="true"
     inkscape:window-x="2560"
     inkscape:snap-bbox="true"
     bordercolor="#666666"
     id="namedview88"
     inkscape:window-maximized="1"
     inkscape:snap-global="true"
     inkscape:window-y="0"
     gridtolerance="10"
     inkscape:zoom="22.627417"
     inkscape:window-height="1352"
     borderopacity="1"
     guidetolerance="10"
     inkscape:cx="10.938058"
     inkscape:bbox-paths="false"
     inkscape:snap-grids="true"
     inkscape:pageopacity="1"
     inkscape:snap-to-guides="true"
     inkscape:pagecheckerboard="0">
    <inkscape:grid
       visible="true"
       spacingx="1"
       type="xygrid"
       spacingy="1"
       id="grid4866"
       empspacing="2"
       enabled="true"
       snapvisiblegridlinesonly="true"
       originx="0"
       originy="0" />
  </sodipodi:namedview>
  <title
     id="title9167">Gnome Symbolic Icon Theme</title>
  <defs
     id="defs7386" />
  <g
     transform="translate(-482,-176)"
     inkscape:groupmode="layer"
     id="layer9"
     inkscape:label="status"
     style="display:inline" />
  <g
     transform="translate(-482,-176)"
     inkscape:groupmode="layer"
     id="layer10"
     inkscape:label="devices" />
  <g
     transform="translate(-482,-176)"
     inkscape:groupmode="layer"
     id="layer11"
     inkscape:label="apps" />
  <g
     transform="translate(-482,-176)"
     inkscape:groupmode="layer"
     id="layer12"
     inkscape:label="actions" />
  <g
     transform="translate(-482,-176)"
     inkscape:groupmode="layer"
     id="layer13"
     inkscape:label="places">
    <g
       transform="translate(254.0002,-820)"
       id="g40072"
       inkscape:label="folder-remote" />
    <g
       id="g1125"
       transform="matrix(0.25423729,0,0,0.25423729,482.5,176.5)"
       style="fill:#bebebe;fill-opacity:1">
      <g
         id="g1123"
         style="fill:#bebebe;fill-opacity:1">
        <path
           d="m 52.224,53 h -0.556 c 0.344,-0.591 0.556,-1.268 0.556,-2 0,-1.489 -0.828,-2.776 -2.038,-3.465 L 48.319,27 h 0.405 c 1.93,0 3.5,-1.57 3.5,-3.5 0,-1.182 -0.593,-2.225 -1.494,-2.859 0.31,-0.472 0.494,-1.035 0.494,-1.641 0,-0.432 -0.095,-0.84 -0.26,-1.211 L 56.776,5 h -6.119 l -3,5 h -2.214 l 1,-5 h -8.439 l 1,5 H 36.79 l -3,-5 h -6.119 l 5.813,12.789 c -0.165,0.371 -0.26,0.78 -0.26,1.211 0,0.606 0.184,1.168 0.494,1.641 -0.901,0.634 -1.494,1.677 -1.494,2.859 0,1.93 1.57,3.5 3.5,3.5 h 0.405 l -1.867,20.535 c -1.211,0.688 -2.038,1.975 -2.038,3.465 0,0.732 0.212,1.409 0.556,2 h -0.556 c -1.654,0 -3,1.346 -3,3 0,1.654 1.346,3 3,3 h 20 c 1.654,0 3,-1.346 3,-3 0,-1.654 -1.346,-3 -3,-3 z m -16,-35 h 12 c 0.552,0 1,0.449 1,1 0,0.551 -0.448,1 -1,1 h -12 c -0.552,0 -1,-0.449 -1,-1 0,-0.551 0.448,-1 1,-1 z M 32.657,7 35.212,11.257 C 35.487,11.715 35.991,12 36.525,12 h 3.048 c 0.462,0 0.894,-0.205 1.187,-0.562 0.292,-0.357 0.407,-0.821 0.316,-1.272 L 40.443,7 h 3.561 l -0.633,3.165 c -0.091,0.453 0.024,0.917 0.316,1.273 C 43.98,11.795 44.412,12 44.874,12 h 3.048 c 0.534,0 1.038,-0.285 1.314,-0.744 L 51.79,7 h 1.881 l -4.091,9 h -1.356 -12 -1.356 L 30.777,7 Z m 3.067,18 c -0.827,0 -1.5,-0.673 -1.5,-1.5 0,-0.827 0.673,-1.5 1.5,-1.5 h 0.5 12 0.5 c 0.827,0 1.5,0.673 1.5,1.5 0,0.827 -0.673,1.5 -1.5,1.5 H 48.137 36.311 Z m 10.587,2 1.818,20 H 36.318 L 38.136,27 Z M 34.224,51 c 0,-1.103 0.897,-2 2,-2 h 12 c 1.103,0 2,0.897 2,2 0,1.103 -0.897,2 -2,2 h -12 c -1.103,0 -2,-0.897 -2,-2 z m 18,6 h -20 c -0.552,0 -1,-0.449 -1,-1 0,-0.551 0.448,-1 1,-1 h 4 12 4 c 0.552,0 1,0.449 1,1 0,0.551 -0.449,1 -1,1 z"
           id="path1119"
           style="fill:#bebebe;fill-opacity:1" />
        <path
           d="m 25.224,53 h -0.556 c 0.344,-0.591 0.556,-1.268 0.556,-2 0,-1.489 -0.828,-2.776 -2.038,-3.465 L 21.319,27 h 0.405 c 1.93,0 3.5,-1.57 3.5,-3.5 0,-1.679 -1.19,-3.084 -2.771,-3.421 l 1.345,-6.05 C 23.962,13.288 23.783,12.524 23.309,11.932 22.833,11.339 22.125,11 21.366,11 h -2.143 v -1 h 0.628 c 1.308,0 2.372,-1.064 2.372,-2.373 V 5.373 C 22.224,4.064 21.159,3 19.852,3 H 19.224 V 2.373 C 19.224,1.064 18.159,0 16.852,0 H 13.596 C 12.288,0 11.224,1.064 11.224,2.373 V 3 H 10.596 C 9.288,3 8.224,4.064 8.224,5.373 V 7.628 C 8.224,8.936 9.288,10 10.596,10 h 0.628 v 1 H 9.081 C 8.322,11 7.614,11.339 7.139,11.932 6.664,12.524 6.486,13.288 6.65,14.03 l 1.345,6.05 c -1.581,0.337 -2.771,1.742 -2.771,3.421 0,1.93 1.57,3.5 3.5,3.5 H 9.129 L 7.262,47.535 C 6.051,48.224 5.224,49.511 5.224,51 c 0,0.732 0.212,1.409 0.556,2 H 5.224 c -1.654,0 -3,1.346 -3,3 0,1.654 1.346,3 3,3 h 20 c 1.654,0 3,-1.346 3,-3 0,-1.654 -1.346,-3 -3,-3 z M 10.228,37 h 9.992 l 0.182,2 H 10.046 Z m -0.364,4 h 10.719 l 0.546,6 H 9.318 Z M 10.596,8 C 10.391,8 10.224,7.833 10.224,7.627 V 5.373 C 10.224,5.167 10.391,5 10.596,5 h 2.628 V 2.373 C 13.224,2.167 13.391,2 13.596,2 h 3.256 c 0.205,0 0.372,0.167 0.372,0.373 V 5 h 2.628 c 0.205,0 0.372,0.167 0.372,0.373 V 7.628 C 20.224,7.833 20.057,8 19.852,8 h -2.628 v 3 h -4 V 8 Z M 8.698,13.184 C 8.754,13.115 8.876,13 9.081,13 h 2.143 8 2.143 c 0.205,0 0.327,0.115 0.383,0.184 0.055,0.068 0.141,0.213 0.096,0.412 L 20.422,20 H 10.025 L 8.602,13.596 c -0.044,-0.2 0.042,-0.344 0.096,-0.412 z M 8.724,25 c -0.827,0 -1.5,-0.673 -1.5,-1.5 0,-0.827 0.673,-1.5 1.5,-1.5 h 13 c 0.827,0 1.5,0.673 1.5,1.5 0,0.827 -0.673,1.5 -1.5,1.5 H 21.137 9.311 Z m 10.587,2 0.727,8 H 10.41 l 0.727,-8 z M 7.224,51 c 0,-1.103 0.897,-2 2,-2 h 12 c 1.103,0 2,0.897 2,2 0,1.103 -0.897,2 -2,2 h -12 c -1.103,0 -2,-0.897 -2,-2 z m 18,6 h -20 c -0.552,0 -1,-0.449 -1,-1 0,-0.551 0.448,-1 1,-1 h 4 12 4 c 0.552,0 1,0.449 1,1 0,0.551 -0.449,1 -1,1 z"
           id="path1121"
           style="fill:#bebebe;fill-opacity:1" />
      </g>
    </g>
  </g>
  <g
     transform="translate(-482,-176)"
     inkscape:groupmode="layer"
     id="layer14"
     inkscape:label="mimetypes" />
  <g
     transform="translate(-482,-176)"
     inkscape:groupmode="layer"
     id="layer15"
     inkscape:label="emblems"
     style="display:inline" />
</svg>
