<?xml version="1.0" encoding="UTF-8" standalone="no"?>
<svg
   width="16"
   height="16"
   version="1.1"
   id="svg10"
   sodipodi:docname="mintinstall-java-symbolic.svg"
   inkscape:version="1.1.2 (0a00cf5339, 2022-02-04)"
   xmlns:inkscape="http://www.inkscape.org/namespaces/inkscape"
   xmlns:sodipodi="http://sodipodi.sourceforge.net/DTD/sodipodi-0.dtd"
   xmlns="http://www.w3.org/2000/svg"
   xmlns:svg="http://www.w3.org/2000/svg">
  <defs
     id="defs14" />
  <sodipodi:namedview
     id="namedview12"
     pagecolor="#ffffff"
     bordercolor="#666666"
     borderopacity="1.0"
     inkscape:pageshadow="2"
     inkscape:pageopacity="0.0"
     inkscape:pagecheckerboard="0"
     showgrid="false"
     inkscape:zoom="38.493125"
     inkscape:cx="-3.2343438"
     inkscape:cy="12.339866"
     inkscape:window-width="2560"
     inkscape:window-height="1352"
     inkscape:window-x="2560"
     inkscape:window-y="0"
     inkscape:window-maximized="1"
     inkscape:current-layer="svg10" />
  <g
     id="g1422"
     transform="matrix(0.19755206,0,0,0.19755206,8.6928388,6.1678266)">
    <g
       id="g906"
       transform="translate(-67.507121,-50.725617)"
       style="fill:#474747;fill-opacity:1">
      <path
         style="clip-rule:evenodd;fill:#474747;fill-opacity:1;fill-rule:evenodd;stroke-width:1.30021"
         d="m 67.529206,58.34008 c 3.664656,4.218436 -0.960927,8.011418 -0.960927,8.011418 0,0 9.299709,-4.799931 5.029707,-10.813575 -3.989501,-5.60549 -7.04814,-8.390011 9.510672,-17.993063 1.68e-4,0 -25.993228,6.490328 -13.579452,20.79522 z"
         id="path4095-0" />
      <path
         style="clip-rule:evenodd;fill:#474747;fill-opacity:1;fill-rule:evenodd;stroke-width:1.30021"
         d="m 71.598153,22.035323 c 0,0 7.888133,7.892667 -7.484008,20.025943 -12.327442,9.736752 -2.810723,15.286309 -0.0044,21.630173 C 56.913272,57.199094 51.63481,51.483084 55.17534,46.163974 60.374523,38.357137 74.780026,34.570874 71.5981,22.035323 v 0 z"
         id="path4103" />
    </g>
    <g
       id="g920"
       transform="translate(-67.507121,-50.725617)"
       style="fill:#474747;fill-opacity:1">
      <path
         style="clip-rule:evenodd;fill:#474747;fill-opacity:1;fill-rule:evenodd;stroke-width:1.30021"
         d="m 54.034408,80.754481 c 0,0 -2.899912,1.687878 2.066136,2.257448 6.017171,0.686976 9.091935,0.588044 15.720834,-0.664974 0,0 1.746331,1.092444 4.180981,2.038589 -14.865055,6.368722 -33.642682,-0.369019 -21.967951,-3.631063 z"
         id="path4091-2" />
      <path
         style="clip-rule:evenodd;fill:#474747;fill-opacity:1;fill-rule:evenodd;stroke-width:1.30021"
         d="m 52.217029,72.442238 c 0,0 -3.252974,2.408448 1.716768,2.922084 6.428182,0.66363 11.502735,0.71805 20.288807,-0.972852 0,0 1.21237,1.231518 3.121626,1.904552 -17.969884,5.256292 -37.98474,0.413531 -25.127201,-3.853784 z"
         id="path4093-2" />
      <path
         style="clip-rule:evenodd;fill:#474747;fill-opacity:1;fill-rule:evenodd;stroke-width:1.30021"
         d="m 87.189153,86.903673 c 0,0 2.146757,1.769677 -2.364441,3.138255 -8.578132,2.598248 -35.709993,3.381971 -43.245903,0.103965 -2.707089,-1.179113 2.371832,-2.813411 3.969849,-3.158579 1.666211,-0.360452 2.617564,-0.294609 2.617564,-0.294609 -3.012786,-2.121565 -19.473007,4.166703 -8.359945,5.970141 30.305724,4.912299 55.24279,-2.212601 47.382876,-5.759178 v 0 z"
         id="path4097-6" />
      <path
         style="clip-rule:evenodd;fill:#474747;fill-opacity:1;fill-rule:evenodd;stroke-width:1.30021"
         d="m 55.430029,63.828667 c 0,0 -13.799151,3.278505 -4.886433,4.470047 3.764427,0.503727 11.264225,0.38783 18.255256,-0.198702 5.711812,-0.479372 11.443948,-1.50463 11.443948,-1.50463 0,0 -2.012556,0.863339 -3.46965,1.857691 -14.015656,3.686324 -41.086212,1.969556 -33.291804,-1.799239 6.588757,-3.187468 11.948683,-2.825167 11.948683,-2.825167 z"
         id="path4099" />
      <path
         style="clip-rule:evenodd;fill:#474747;fill-opacity:1;fill-rule:evenodd;stroke-width:1.30021"
         d="m 80.185692,77.664936 c 14.24644,-7.401034 7.658691,-14.514176 3.060823,-13.556104 -1.124358,0.234646 -1.628756,0.437883 -1.628756,0.437883 0,0 0.418904,-0.656238 1.21657,-0.938587 9.096135,-3.19637 16.090021,9.430552 -2.933338,14.43137 -1.69e-4,0 0.21869,-0.198199 0.284701,-0.374562 z"
         id="path4101" />
      <path
         style="clip-rule:evenodd;fill:#474747;fill-opacity:1;fill-rule:evenodd;stroke-width:1.30021"
         d="M 56.830687,97.726487 C 70.502519,98.600575 91.502993,97.240061 92,90.770224 c 0,0 -0.955383,2.452621 -11.3,4.398661 -11.670365,2.197149 -26.067637,1.941338 -34.603441,0.531946 0,0 1.748681,1.447353 10.734128,2.025656 z"
         id="path4105" />
    </g>
  </g>
</svg>
