<?xml version="1.0" encoding="UTF-8"?>
<svg width="16" height="16" xmlns="http://www.w3.org/2000/svg">
 <g fill="#474747">
  <path d="M5.969 7.969A2.969 2.969 0 013 10.937 2.969 2.969 0 01.031 7.97 2.969 2.969 0 013.001 5a2.969 2.969 0 012.968 2.969zm9.969 5a2.969 2.969 0 01-2.97 2.969A2.969 2.969 0 0110 12.967 2.969 2.969 0 0112.969 10a2.969 2.969 0 012.969 2.969zm0-10a2.969 2.969 0 01-2.97 2.969A2.969 2.969 0 0110 2.967 2.969 2.969 0 0112.969 0a2.969 2.969 0 012.969 2.969z" overflow="visible"/>
  <path d="M12.614 2.146L.747 7.924l11.855 5.969.899-1.788-8.248-4.15 8.236-4.012z" font-family="sans-serif" font-weight="400" overflow="visible" style="font-feature-settings:normal;font-variant-alternates:normal;font-variant-caps:normal;font-variant-ligatures:normal;font-variant-numeric:normal;font-variant-position:normal;isolation:auto;mix-blend-mode:normal;shape-padding:0;text-decoration-color:#000;text-decoration-line:none;text-decoration-style:solid;text-indent:0;text-orientation:mixed;text-transform:none"/>
 </g>
</svg>
