<?xml version="1.0" encoding="UTF-8" standalone="no"?>
<!-- Created with Inkscape (http://www.inkscape.org/) -->

<svg
   id="svg7384"
   version="1.1"
   inkscape:version="1.1.2 (0a00cf5339, 2022-02-04)"
   height="16"
   sodipodi:docname="mintinstall-education-symbolic.svg"
   width="16.000002"
   xmlns:inkscape="http://www.inkscape.org/namespaces/inkscape"
   xmlns:sodipodi="http://sodipodi.sourceforge.net/DTD/sodipodi-0.dtd"
   xmlns="http://www.w3.org/2000/svg"
   xmlns:svg="http://www.w3.org/2000/svg"
   xmlns:rdf="http://www.w3.org/1999/02/22-rdf-syntax-ns#"
   xmlns:cc="http://creativecommons.org/ns#"
   xmlns:dc="http://purl.org/dc/elements/1.1/">
  <metadata
     id="metadata90">
    <rdf:RDF>
      <cc:Work
         rdf:about="">
        <dc:format>image/svg+xml</dc:format>
        <dc:type
           rdf:resource="http://purl.org/dc/dcmitype/StillImage" />
        <dc:title>Gnome Symbolic Icon Theme</dc:title>
      </cc:Work>
    </rdf:RDF>
  </metadata>
  <sodipodi:namedview
     inkscape:cy="6.2313785"
     inkscape:current-layer="layer13"
     inkscape:window-width="2560"
     pagecolor="#555753"
     showborder="true"
     showguides="true"
     inkscape:snap-nodes="true"
     objecttolerance="10"
     showgrid="true"
     inkscape:object-nodes="true"
     inkscape:pageshadow="2"
     inkscape:guide-bbox="true"
     inkscape:window-x="2560"
     inkscape:snap-bbox="true"
     bordercolor="#666666"
     id="namedview88"
     inkscape:window-maximized="1"
     inkscape:snap-global="true"
     inkscape:window-y="0"
     gridtolerance="10"
     inkscape:zoom="22.627417"
     inkscape:window-height="1352"
     borderopacity="1"
     guidetolerance="10"
     inkscape:cx="10.938058"
     inkscape:bbox-paths="false"
     inkscape:snap-grids="true"
     inkscape:pageopacity="1"
     inkscape:snap-to-guides="true"
     inkscape:pagecheckerboard="0">
    <inkscape:grid
       visible="true"
       spacingx="1"
       type="xygrid"
       spacingy="1"
       id="grid4866"
       empspacing="2"
       enabled="true"
       snapvisiblegridlinesonly="true"
       originx="0"
       originy="0" />
  </sodipodi:namedview>
  <title
     id="title9167">Gnome Symbolic Icon Theme</title>
  <defs
     id="defs7386" />
  <g
     transform="translate(-482,-176)"
     inkscape:groupmode="layer"
     id="layer9"
     inkscape:label="status"
     style="display:inline" />
  <g
     transform="translate(-482,-176)"
     inkscape:groupmode="layer"
     id="layer10"
     inkscape:label="devices" />
  <g
     transform="translate(-482,-176)"
     inkscape:groupmode="layer"
     id="layer11"
     inkscape:label="apps" />
  <g
     transform="translate(-482,-176)"
     inkscape:groupmode="layer"
     id="layer12"
     inkscape:label="actions" />
  <g
     transform="translate(-482,-176)"
     inkscape:groupmode="layer"
     id="layer13"
     inkscape:label="places">
    <g
       transform="translate(254.0002,-820)"
       id="g40072"
       inkscape:label="folder-remote" />
    <path
       d="m 497.10585,179.12585 -6.92307,-2.30769 a 0.57740768,0.57740768 0 0 0 -0.36488,0 l -6.91199,2.304 -7.1e-4,2.4e-4 -0.0104,0.003 c -0.002,6.7e-4 -0.004,0.002 -0.006,0.002 a 0.57072619,0.57072619 0 0 0 -0.0729,0.0309 c -0.003,0.001 -0.006,0.003 -0.008,0.004 a 0.57499974,0.57499974 0 0 0 -0.0672,0.0421 c -0.005,0.003 -0.009,0.007 -0.0139,0.0104 a 0.58302331,0.58302331 0 0 0 -0.059,0.0513 c -0.002,0.002 -0.003,0.004 -0.005,0.005 a 0.57852402,0.57852402 0 0 0 -0.0477,0.0565 c -0.003,0.004 -0.006,0.008 -0.009,0.012 a 0.5770507,0.5770507 0 0 0 -0.0409,0.0671 c -0.002,0.004 -0.003,0.007 -0.005,0.0109 a 0.57477691,0.57477691 0 0 0 -0.0292,0.0704 c -7.6e-4,0.002 -0.002,0.004 -0.002,0.007 a 0.57335911,0.57335911 0 0 0 -0.019,0.0783 c -9.6e-4,0.006 -0.002,0.011 -0.003,0.0166 a 0.57900575,0.57900575 0 0 0 -0.007,0.0825 v 5.76923 a 0.576925,0.576925 0 0 0 1.15385,0 v -4.96876 l 2.42201,0.80733 a 4.6133436,4.6133436 0 0 0 1.47327,6.33876 6.9144856,6.9144856 0 0 0 -3.3522,2.69982 0.57690449,0.57690449 0 1 0 0.96652,0.63017 5.7708891,5.7708891 0 0 1 9.67307,0 0.57690081,0.57690081 0 1 0 0.96651,-0.63017 6.9143804,6.9143804 0 0 0 -3.35216,-2.6998 4.6133653,4.6133653 0 0 0 1.47327,-6.33878 l 3.18137,-1.06046 a 0.57695913,0.57695913 0 0 0 0,-1.09469 z m -7.10551,8.04735 a 3.4609282,3.4609282 0 0 1 -2.78735,-5.51327 l 2.60491,0.8683 a 0.57740768,0.57740768 0 0 0 0.36488,0 l 2.60491,-0.8683 a 3.4609282,3.4609282 0 0 1 -2.78735,5.51327 z"
       id="path832"
       style="fill:#bebebe;fill-opacity:1;stroke-width:0.0721154" />
  </g>
  <g
     transform="translate(-482,-176)"
     inkscape:groupmode="layer"
     id="layer14"
     inkscape:label="mimetypes" />
  <g
     transform="translate(-482,-176)"
     inkscape:groupmode="layer"
     id="layer15"
     inkscape:label="emblems"
     style="display:inline" />
</svg>
