<?xml version="1.0" encoding="UTF-8" standalone="no"?>
<svg
   width="16px"
   height="16px"
   viewBox="0 0 16 16"
   version="1.1"
   id="svg4"
   sodipodi:docname="mintinstall-php-symbolic.svg"
   inkscape:version="1.1.2 (0a00cf5339, 2022-02-04)"
   xmlns:inkscape="http://www.inkscape.org/namespaces/inkscape"
   xmlns:sodipodi="http://sodipodi.sourceforge.net/DTD/sodipodi-0.dtd"
   xmlns:xlink="http://www.w3.org/1999/xlink"
   xmlns="http://www.w3.org/2000/svg"
   xmlns:svg="http://www.w3.org/2000/svg">
  <defs
     id="defs8">
    <linearGradient
       xlink:href="#linearGradient937"
       id="linearGradient4175"
       x1="60.538681"
       y1="1.5931232"
       x2="60.538681"
       y2="118.59026"
       gradientUnits="userSpaceOnUse" />
    <linearGradient
       id="linearGradient937">
      <stop
         id="stop933"
         offset="0"
         style="stop-color:#9bdb4d;stop-opacity:1" />
      <stop
         id="stop935"
         offset="1"
         style="stop-color:#3a9104;stop-opacity:1" />
    </linearGradient>
    <linearGradient
       xlink:href="#linearGradient4169"
       id="linearGradient911"
       x1="61"
       y1="63"
       x2="67"
       y2="63"
       gradientUnits="userSpaceOnUse" />
    <linearGradient
       id="linearGradient4169">
      <stop
         style="stop-color:#43d6b5;stop-opacity:1"
         offset="0"
         id="stop4171" />
      <stop
         style="stop-color:#0e9a83;stop-opacity:1"
         offset="1"
         id="stop4173" />
    </linearGradient>
    <linearGradient
       xlink:href="#linearGradient937"
       id="linearGradient913"
       gradientUnits="userSpaceOnUse"
       x1="60.520607"
       y1="1.5206056"
       x2="60.551304"
       y2="118.53259" />
    <linearGradient
       xlink:href="#linearGradient854"
       id="linearGradient856"
       x1="60.4459"
       y1="1.5567136"
       x2="60.4459"
       y2="117.92628"
       gradientUnits="userSpaceOnUse"
       gradientTransform="matrix(0.50003322,0,0,0.50003322,31.997872,29.997957)" />
    <linearGradient
       id="linearGradient854">
      <stop
         style="stop-color:#a56de2;stop-opacity:1"
         offset="0"
         id="stop850" />
      <stop
         style="stop-color:#7239b3;stop-opacity:1"
         offset="1"
         id="stop852" />
    </linearGradient>
  </defs>
  <sodipodi:namedview
     id="namedview6"
     pagecolor="#ffffff"
     bordercolor="#666666"
     borderopacity="1.0"
     inkscape:pageshadow="2"
     inkscape:pageopacity="0.0"
     inkscape:pagecheckerboard="0"
     showgrid="false"
     inkscape:zoom="54.4375"
     inkscape:cx="7.8714122"
     inkscape:cy="7.9908152"
     inkscape:window-width="2560"
     inkscape:window-height="1352"
     inkscape:window-x="2560"
     inkscape:window-y="0"
     inkscape:window-maximized="1"
     inkscape:current-layer="g839" />
  <g
     id="g839"
     transform="matrix(0.46875001,0,0,0.46875001,-22.000001,-20.125001)"
     style="fill:#2e3436;fill-opacity:1">
    <path
       id="text3028-0"
       d="m 63.874992,53.358934 c -1.359468,1.3e-5 -2.623223,0.306673 -3.812753,0.968814 l 0.718798,1.562604 c 0.4512,-0.22266 0.9317,-0.404313 1.406343,-0.562537 0.474638,-0.158202 0.97467,-0.250006 1.531351,-0.250016 0.615271,1e-5 1.109444,0.142599 1.437596,0.406276 0.328141,0.263701 0.468775,0.632865 0.468781,1.125075 -6e-6,0.421912 -0.07618,0.789124 -0.281269,1.093823 -0.199237,0.304716 -0.646532,0.730525 -1.343839,1.281335 -0.58598,0.457068 -1.015696,0.884831 -1.250083,1.312587 -0.234393,0.427769 -0.343775,0.980539 -0.343773,1.625108 v 0.562538 h 1.718864 v -0.406277 c -4e-6,-0.474637 0.09961,-0.843801 0.281269,-1.125075 0.187507,-0.281263 0.548859,-0.634802 1.093823,-1.062571 0.638708,-0.498073 1.086003,-0.908256 1.343839,-1.218831 0.263682,-0.310558 0.464867,-0.628939 0.593789,-0.968814 0.128908,-0.345717 0.187505,-0.748087 0.187513,-1.187579 -8e-6,-0.99029 -0.326201,-1.750104 -1.000067,-2.312653 -0.673878,-0.562525 -1.601674,-0.843794 -2.750182,-0.843807 z m -6.875457,0.625042 -9.000598,5.000332 v 2.000133 l 9.000598,5.000332 V 63.98464 l -7.000465,-3.996359 7.000465,-4.004172 z m 14.00093,0 v 2.000133 l 7.000466,4.004172 -7.000466,3.996359 v 2.000133 l 9.000599,-5.000332 v -2.000133 z m -7.656759,9.969412 c -0.861388,2e-6 -1.312589,0.459017 -1.312587,1.34384 -2e-6,0.427762 0.1211,0.759815 0.343773,1.000066 0.222669,0.234391 0.552768,0.343773 0.968814,0.343773 0.41604,0 0.714888,-0.134775 0.937563,-0.375025 0.228526,-0.24611 0.343767,-0.552772 0.343772,-0.968814 -5e-6,-0.421901 -0.08986,-0.771536 -0.31252,-1.000067 -0.222675,-0.234388 -0.546916,-0.343771 -0.968815,-0.343773 z"
       style="color:#000000;font-style:normal;font-variant:normal;font-weight:600;font-stretch:normal;font-size:18px;line-height:125%;font-family:'Open Sans';-inkscape-font-specification:'Open Sans Semi-Bold';text-align:center;letter-spacing:0px;word-spacing:0px;writing-mode:lr-tb;text-anchor:middle;clip-rule:nonzero;display:inline;overflow:visible;visibility:visible;isolation:auto;mix-blend-mode:normal;color-interpolation:sRGB;color-interpolation-filters:linearRGB;solid-color:#000000;solid-opacity:1;fill:#748388;fill-opacity:1;fill-rule:nonzero;stroke:none;stroke-width:0.500031;stroke-linecap:butt;stroke-linejoin:round;stroke-miterlimit:4;stroke-dasharray:none;stroke-dashoffset:0;stroke-opacity:1;marker:none;color-rendering:auto;image-rendering:auto;shape-rendering:auto;text-rendering:auto;enable-background:accumulate" />
  </g>
</svg>
