<?xml version="1.0" encoding="UTF-8" standalone="no"?>
<svg
   width="16px"
   height="16px"
   viewBox="0 0 16 16"
   version="1.1"
   id="svg4"
   sodipodi:docname="mintinstall-programming-symbolic.svg"
   inkscape:version="1.1.2 (0a00cf5339, 2022-02-04)"
   xmlns:inkscape="http://www.inkscape.org/namespaces/inkscape"
   xmlns:sodipodi="http://sodipodi.sourceforge.net/DTD/sodipodi-0.dtd"
   xmlns:xlink="http://www.w3.org/1999/xlink"
   xmlns="http://www.w3.org/2000/svg"
   xmlns:svg="http://www.w3.org/2000/svg">
  <defs
     id="defs8">
    <linearGradient
       xlink:href="#linearGradient937"
       id="linearGradient4175"
       x1="60.538681"
       y1="1.5931232"
       x2="60.538681"
       y2="118.59026"
       gradientUnits="userSpaceOnUse" />
    <linearGradient
       id="linearGradient937">
      <stop
         id="stop933"
         offset="0"
         style="stop-color:#9bdb4d;stop-opacity:1" />
      <stop
         id="stop935"
         offset="1"
         style="stop-color:#3a9104;stop-opacity:1" />
    </linearGradient>
    <linearGradient
       xlink:href="#linearGradient4169"
       id="linearGradient911"
       x1="61"
       y1="63"
       x2="67"
       y2="63"
       gradientUnits="userSpaceOnUse" />
    <linearGradient
       id="linearGradient4169">
      <stop
         style="stop-color:#43d6b5;stop-opacity:1"
         offset="0"
         id="stop4171" />
      <stop
         style="stop-color:#0e9a83;stop-opacity:1"
         offset="1"
         id="stop4173" />
    </linearGradient>
    <linearGradient
       xlink:href="#linearGradient937"
       id="linearGradient913"
       gradientUnits="userSpaceOnUse"
       x1="60.520607"
       y1="1.5206056"
       x2="60.551304"
       y2="118.53259" />
  </defs>
  <sodipodi:namedview
     id="namedview6"
     pagecolor="#ffffff"
     bordercolor="#666666"
     borderopacity="1.0"
     inkscape:pageshadow="2"
     inkscape:pageopacity="0.0"
     inkscape:pagecheckerboard="0"
     showgrid="false"
     inkscape:zoom="54.4375"
     inkscape:cx="7.8714122"
     inkscape:cy="7.9908152"
     inkscape:window-width="2560"
     inkscape:window-height="1352"
     inkscape:window-x="2560"
     inkscape:window-y="0"
     inkscape:window-maximized="1"
     inkscape:current-layer="g839" />
  <g
     id="g839"
     transform="matrix(0.46875001,0,0,0.46875001,-22.000001,-20.125001)"
     style="fill:#2e3436;fill-opacity:1">
    <path
       id="path3873-9"
       d="m 56.957017,44.000001 c -2.035944,2.7e-5 -3.115098,0.428248 -4.137753,1.312499 -1.013289,0.872352 -1.496635,2.260873 -1.496635,4.125 V 55 c 0,1.111335 -0.34919,1.88783 -0.96841,2.4375 -0.609838,0.537751 -1.990784,0.875012 -3.25738,0.875 v 3.375 c 2.495653,8e-6 4.22579,1.152366 4.22579,3.375 v 5.0625 c 0,2.043394 0.460992,3.59182 1.408597,4.5 0.956973,0.920119 2.058495,1.351094 4.225791,1.375 V 72.75 C 55.87806,72.7261 55.322608,72.439383 54.844122,71.9375 54.365621,71.435614 54.139823,70.729874 54.139823,69.75 v -5.375 c 0,-2.40188 -0.84475,-3.819802 -2.993268,-4.25 v -0.25 c 2.148518,-0.466025 2.993268,-1.934498 2.993268,-4.3125 V 50.25 c 0,-0.979854 0.225798,-1.63504 0.704299,-2.124999 0.487867,-0.501864 1.043319,-0.815231 2.112895,-0.875 z m 14.085968,0 v 3.25 c 1.069576,0.05978 1.625028,0.373136 2.112895,0.875 0.478501,0.489959 0.704299,1.145145 0.704299,2.124999 v 5.3125 c 0,2.378002 0.844749,3.846475 2.993268,4.3125 v 0.25 c -2.148519,0.430198 -2.993268,1.84812 -2.993268,4.25 v 5.375 c 0,0.979874 -0.225798,1.685614 -0.704299,2.1875 -0.478486,0.501883 -1.033939,0.7886 -2.112895,0.8125 V 76 c 2.167295,-0.0239 3.268818,-0.454881 4.225791,-1.375 0.947605,-0.90818 1.408596,-2.456606 1.408596,-4.5 v -5.0625 c 0,-2.222634 1.730138,-3.374992 4.225791,-3.375 v -3.375 c -1.266596,1.3e-5 -2.647542,-0.337249 -3.25738,-0.874999 C 77.026563,56.88783 76.677372,56.111335 76.677372,55 v -5.5625 c 0,-1.864127 -0.48336,-3.252648 -1.496634,-4.125 -1.022655,-0.884251 -2.101809,-1.312472 -4.137753,-1.312499 z"
       style="color:#000000;font-style:normal;font-variant:normal;font-weight:600;font-stretch:normal;font-size:19px;line-height:125%;font-family:'Open Sans';-inkscape-font-specification:'Open Sans Semi-Bold';text-align:start;letter-spacing:0px;word-spacing:0px;writing-mode:lr-tb;text-anchor:start;clip-rule:nonzero;display:inline;overflow:visible;visibility:visible;opacity:1;isolation:auto;mix-blend-mode:normal;color-interpolation:sRGB;color-interpolation-filters:linearRGB;solid-color:#000000;solid-opacity:1;fill:#2e3436;fill-opacity:1;fill-rule:nonzero;stroke:none;stroke-width:0.839225;stroke-linecap:butt;stroke-linejoin:round;stroke-miterlimit:4;stroke-dasharray:none;stroke-dashoffset:0;stroke-opacity:1;marker:none;color-rendering:auto;image-rendering:auto;shape-rendering:auto;text-rendering:auto;enable-background:accumulate" />
  </g>
</svg>
