<?xml version="1.0" encoding="UTF-8"?>
<svg width="16px" height="16px" viewBox="0 0 16 16" xmlns="http://www.w3.org/2000/svg">
 <g fill="#2e3436">
  <path d="m1.8047 3.0195c-0.26172 0.050781-0.48828 0.20703-0.63672 0.42578-0.30469 0.46094-0.18359 1.082 0.27734 1.3867l5.168 3.4453c0.83594 0.55859 1.9375 0.55859 2.7734 0l5.168-3.4453c0.46094-0.30469 0.58203-0.92578 0.27734-1.3867-0.30469-0.46094-0.92578-0.58203-1.3867-0.27734l-5.168 3.4453c-0.17188 0.11328-0.38281 0.11328-0.55469 0l-5.168-3.4453c-0.22266-0.14844-0.49219-0.19922-0.75-0.14844z"/>
  <path d="m3 2c-1.6445 0-3 1.3555-3 3v6c0 1.6445 1.3555 3 3 3h10c1.6445 0 3-1.3555 3-3v-6c0-1.6445-1.3555-3-3-3zm0 2h10c0.57031 0 1 0.42969 1 1v6c0 0.57031-0.42969 1-1 1h-10c-0.57031 0-1-0.42969-1-1v-6c0-0.57031 0.42969-1 1-1z"/>
 </g>
</svg>
